<?xml version="1.0" encoding="UTF-8"?>
<!DOCTYPE svg PUBLIC "-//W3C//DTD SVG 1.1//EN" "http://www.w3.org/Graphics/SVG/1.1/DTD/svg11.dtd">
<svg xmlns="http://www.w3.org/2000/svg" version="1.1" width="1141px" height="787px" style="shape-rendering:geometricPrecision; text-rendering:geometricPrecision; image-rendering:optimizeQuality; fill-rule:evenodd; clip-rule:evenodd" xmlns:xlink="http://www.w3.org/1999/xlink">
<g><path style="opacity:1" fill="#bfcde6" d="M 310.5,-0.5 C 311.167,-0.5 311.833,-0.5 312.5,-0.5C 316.192,4.85127 319.859,10.1846 323.5,15.5C 322.603,14.4019 321.77,14.4019 321,15.5C 295.374,61.0876 275.541,109.088 261.5,159.5C 261.167,159.5 260.833,159.5 260.5,159.5C 254.628,157.212 248.961,154.546 243.5,151.5C 259.304,97.8981 281.637,47.2315 310.5,-0.5 Z"/></g>
<g><path style="opacity:1" fill="#afc0e0" d="M 323.5,15.5 C 341.884,40.9163 357.218,68.2496 369.5,97.5C 377.283,115.18 384.283,133.18 390.5,151.5C 348.522,172.261 305.522,174.928 261.5,159.5C 275.541,109.088 295.374,61.0876 321,15.5C 321.77,14.4019 322.603,14.4019 323.5,15.5 Z"/></g>
<g><path style="opacity:0.098" fill="#1f70fe" d="M 369.5,97.5 C 380.178,99.839 389.844,104.339 398.5,111C 422.1,131.589 441.6,155.422 457,182.5C 470.253,205.338 483.253,228.338 496,251.5C 504.084,264.67 512.417,277.67 521,290.5C 528.258,301.093 537.425,309.593 548.5,316C 562.494,319.921 576.161,318.921 589.5,313C 605.182,305.634 619.516,296.301 632.5,285C 644.731,273.438 656.231,261.271 667,248.5C 688.444,219.721 709.111,190.388 729,160.5C 762.511,117.411 798.178,115.411 836,154.5C 856.781,182.049 873.448,212.049 886,244.5C 900.389,282.944 915.056,321.277 930,359.5C 944.569,396.172 965.735,428.339 993.5,456C 1002.32,463.073 1011.98,468.573 1022.5,472.5C 1020.74,475.009 1019.24,477.676 1018,480.5C 1017.4,492.214 1017.9,503.881 1019.5,515.5C 1013.46,521.535 1007.8,527.869 1002.5,534.5C 1004.95,527.013 1006.62,519.346 1007.5,511.5C 1007.1,501.599 1001.94,495.932 992,494.5C 985.083,495.272 979.917,498.605 976.5,504.5C 974.987,502.484 974.153,500.151 974,497.5C 973.319,488.486 973.485,479.486 974.5,470.5C 973.8,458.44 969.3,448.107 961,439.5C 955.8,434.635 950.967,429.468 946.5,424C 934.488,418.666 922.488,413.332 910.5,408C 902.791,407.665 896.458,404.665 891.5,399C 887.112,397.593 882.779,396.093 878.5,394.5C 879.11,393.609 879.443,392.609 879.5,391.5C 888.513,392.144 894.18,388.144 896.5,379.5C 899.36,375.338 900.193,370.672 899,365.5C 895.516,359.215 893.349,352.549 892.5,345.5C 892.5,344.833 892.5,344.167 892.5,343.5C 895.136,340.739 895.969,337.406 895,333.5C 891.768,326.599 888.101,319.933 884,313.5C 882.453,308.216 881.12,302.882 880,297.5C 874.671,291.75 868.171,287.916 860.5,286C 851.651,285.304 842.818,285.47 834,286.5C 826.925,286.016 820.092,284.516 813.5,282C 800.272,278.782 790.939,283.282 785.5,295.5C 783.44,298.24 781.774,301.24 780.5,304.5C 775.069,310.266 770.402,316.599 766.5,323.5C 762.221,331.687 761.388,340.353 764,349.5C 765.31,355.673 769.144,358.34 775.5,357.5C 771.614,384.555 781.281,405.055 804.5,419C 806.854,419.847 809.188,420.68 811.5,421.5C 811.083,422.124 810.416,422.457 809.5,422.5C 801.91,420.767 794.243,420.267 786.5,421C 777.051,424.363 767.717,428.029 758.5,432C 756.192,434.128 754.526,436.628 753.5,439.5C 749.917,447.459 747.084,455.792 745,464.5C 742.05,469.118 738.716,473.452 735,477.5C 733.425,482.91 731.092,487.91 728,492.5C 727.118,495.789 726.452,499.123 726,502.5C 722.483,505.704 720.483,509.704 720,514.5C 714.882,517.402 711.715,521.735 710.5,527.5C 707.548,531.119 704.215,534.452 700.5,537.5C 692.319,529.486 684.319,521.319 676.5,513C 673.537,511.15 670.537,511.15 667.5,513C 663.534,515.964 659.867,519.297 656.5,523C 648.209,525.439 642.376,530.606 639,538.5C 636.667,540.833 634.333,543.167 632,545.5C 630.711,548.351 630.211,551.351 630.5,554.5C 630.203,558.911 631.369,562.911 634,566.5C 637.038,569.369 639.871,572.369 642.5,575.5C 630.865,580.469 622.531,588.802 617.5,600.5C 610.645,611.649 610.979,622.649 618.5,633.5C 577.153,632.03 535.82,630.364 494.5,628.5C 498.328,611.852 502.162,595.185 506,578.5C 508.54,559.359 506.54,540.693 500,522.5C 483.647,482.652 458.147,449.986 423.5,424.5C 430.256,331.299 419.256,240.299 390.5,151.5C 384.283,133.18 377.283,115.18 369.5,97.5 Z"/></g>
<g><path style="opacity:0.992" fill="#e8ecf5" d="M 243.5,151.5 C 248.961,154.546 254.628,157.212 260.5,159.5C 231.873,265.938 224.04,373.938 237,483.5C 241.665,522.491 248.165,561.157 256.5,599.5C 249.639,598.101 242.972,596.101 236.5,593.5C 234.583,586.25 232.916,578.917 231.5,571.5C 227.56,548.193 223.727,524.86 220,501.5C 217.384,475.69 214.884,450.023 212.5,424.5C 207.55,331.72 217.883,240.72 243.5,151.5 Z"/></g>
<g><path style="opacity:1" fill="#e2e7f3" d="M 390.5,151.5 C 419.256,240.299 430.256,331.299 423.5,424.5C 419.614,473.559 412.281,522.226 401.5,570.5C 400.211,577.614 398.545,584.614 396.5,591.5C 351.119,608.144 304.786,611.144 257.5,600.5C 256.833,600.5 256.5,600.167 256.5,599.5C 248.165,561.157 241.665,522.491 237,483.5C 224.04,373.938 231.873,265.938 260.5,159.5C 260.833,159.5 261.167,159.5 261.5,159.5C 305.522,174.928 348.522,172.261 390.5,151.5 Z"/></g>
<g><path style="opacity:0.865" fill="#2270fe" d="M 155.5,217.5 C 154.508,217.328 153.842,217.662 153.5,218.5C 148.948,209.734 144.115,201.068 139,192.5C 136.588,188.084 133.422,184.251 129.5,181C 140.162,184.994 147.662,192.494 152,203.5C 153.797,208.023 154.964,212.69 155.5,217.5 Z"/></g>
<g><path style="opacity:0.859" fill="#2270fe" d="M 159.5,239.5 C 159.714,232.732 159.047,226.065 157.5,219.5C 157.803,211.111 157.47,202.778 156.5,194.5C 157.359,193.226 158.026,193.392 158.5,195C 163.034,206.094 164.534,217.594 163,229.5C 162.698,233.245 161.531,236.578 159.5,239.5 Z"/></g>
<g><path style="opacity:1" fill="#aebfe0" d="M 306.5,221.5 C 350.124,218.995 377.624,238.662 389,280.5C 392.738,316.533 378.572,342.699 346.5,359C 307.407,371.971 276.907,361.138 255,326.5C 238.656,288.21 247.156,256.71 280.5,232C 288.769,227.196 297.436,223.696 306.5,221.5 Z"/></g>
<g><path style="opacity:0.88" fill="#2270fe" d="M 157.5,233.5 C 158.494,235.334 158.494,237.001 157.5,238.5C 153.567,235.736 150.067,232.403 147,228.5C 148.726,240.395 151.226,252.062 154.5,263.5C 154.632,266.57 154.299,269.57 153.5,272.5C 152.542,272.047 151.708,271.381 151,270.5C 150.699,273.507 150.865,276.507 151.5,279.5C 151.502,284.5 150.502,289.167 148.5,293.5C 146.526,291.572 145.026,289.239 144,286.5C 142,277.5 142,268.5 144,259.5C 145.018,260.706 145.518,260.373 145.5,258.5C 142.875,247.814 142.875,237.147 145.5,226.5C 140.076,218.229 136.409,209.229 134.5,199.5C 142.004,210.369 149.671,221.702 157.5,233.5 Z"/></g>
<g><path style="opacity:0.869" fill="#2270fe" d="M 155.5,273.5 C 156.067,266.763 157.067,260.096 158.5,253.5C 161.474,245.589 164.474,237.589 167.5,229.5C 169.59,244.216 166.757,257.882 159,270.5C 157.961,271.71 156.794,272.71 155.5,273.5 Z"/></g>
<g><path style="opacity:1" fill="#4e8cfe" d="M 316.5,242.5 C 302.53,267.116 288.197,291.449 273.5,315.5C 268.087,306.44 266.42,296.774 268.5,286.5C 268.343,287.873 268.51,289.207 269,290.5C 280.379,275.576 291.879,260.743 303.5,246C 302.906,245.536 302.239,245.369 301.5,245.5C 306.106,243.124 311.106,242.124 316.5,242.5 Z"/></g>
<g><path style="opacity:1" fill="#2371fe" d="M 316.5,242.5 C 348.66,244.161 366.327,260.994 369.5,293C 367.771,317.389 355.438,333.723 332.5,342C 315.469,346.404 300.135,343.237 286.5,332.5C 296.365,317.276 306.365,302.109 316.5,287C 315.333,285.833 314.167,284.667 313,283.5C 300.966,296.365 288.8,309.032 276.5,321.5C 274.975,319.784 273.975,317.784 273.5,315.5C 288.197,291.449 302.53,267.116 316.5,242.5 Z"/></g>
<g><path style="opacity:1" fill="#2772fe" d="M 301.5,245.5 C 302.239,245.369 302.906,245.536 303.5,246C 291.879,260.743 280.379,275.576 269,290.5C 268.51,289.207 268.343,287.873 268.5,286.5C 270.29,271.552 277.29,259.719 289.5,251C 293.133,248.35 297.133,246.517 301.5,245.5 Z"/></g>
<g><path style="opacity:0.794" fill="#226ffe" d="M 198.5,278.5 C 197.508,278.328 196.842,278.662 196.5,279.5C 192.547,271.037 187.547,263.204 181.5,256C 186.052,257.51 189.886,260.343 193,264.5C 195.53,268.93 197.364,273.597 198.5,278.5 Z"/></g>
<g><path style="opacity:0.91" fill="#2270fe" d="M 151.5,292.5 C 151.691,288.738 152.358,285.071 153.5,281.5C 154.167,281.5 154.5,281.167 154.5,280.5C 159.043,275.791 164.043,271.625 169.5,268C 171.167,267.333 172.833,267.333 174.5,268C 170.714,276.454 165.381,283.787 158.5,290C 156.35,291.411 154.016,292.245 151.5,292.5 Z"/></g>
<g><path style="opacity:0.877" fill="#2270fe" d="M 200.5,291.5 C 200.354,287.481 200.021,283.481 199.5,279.5C 198.852,274.172 198.685,268.838 199,263.5C 203.52,272.861 204.02,282.194 200.5,291.5 Z"/></g>
<g><path style="opacity:0.828" fill="#236ffd" d="M 198.5,286.5 C 199.354,288.035 199.354,289.368 198.5,290.5C 196.589,289.925 194.922,288.925 193.5,287.5C 194.231,293.748 195.565,299.748 197.5,305.5C 197.351,306.552 197.517,307.552 198,308.5C 198.837,304.486 199.671,300.486 200.5,296.5C 202.072,292.974 203.572,289.307 205,285.5C 206.401,293.969 205.068,301.969 201,309.5C 199.961,310.71 198.794,311.71 197.5,312.5C 197.167,312.5 196.833,312.5 196.5,312.5C 195.794,311.443 195.461,311.776 195.5,313.5C 195.338,315.527 195.505,317.527 196,319.5C 196.513,318.473 197.013,317.473 197.5,316.5C 200.461,313.254 203.961,310.587 208,308.5C 208.5,308.833 209,309.167 209.5,309.5C 206.849,316.481 202.183,321.481 195.5,324.5C 195.657,323.127 195.49,321.793 195,320.5C 194.79,322.058 194.29,323.391 193.5,324.5C 192.21,323.942 191.377,322.942 191,321.5C 188.923,315.112 189.09,308.778 191.5,302.5C 190.209,296.48 190.209,290.48 191.5,284.5C 187.898,279.322 186.065,273.655 186,267.5C 189.693,274.241 193.86,280.574 198.5,286.5 Z M 193.5,287.5 C 194.922,288.925 196.589,289.925 198.5,290.5C 198.587,295.537 198.254,300.537 197.5,305.5C 195.565,299.748 194.231,293.748 193.5,287.5 Z"/></g>
<g><path style="opacity:0.189" fill="#5378ba" d="M 892.5,343.5 C 892.663,341.143 892.497,338.81 892,336.5C 888.919,330.669 885.585,325.002 882,319.5C 880.333,313.488 878.666,307.488 877,301.5C 869.216,294.012 859.883,290.012 849,289.5C 842.992,290.101 836.992,290.767 831,291.5C 822.439,289.2 813.772,287.533 805,286.5C 801.41,286.472 797.91,286.972 794.5,288C 791.335,290.335 788.335,292.835 785.5,295.5C 790.939,283.282 800.272,278.782 813.5,282C 820.092,284.516 826.925,286.016 834,286.5C 842.818,285.47 851.651,285.304 860.5,286C 868.171,287.916 874.671,291.75 880,297.5C 881.12,302.882 882.453,308.216 884,313.5C 888.101,319.933 891.768,326.599 895,333.5C 895.969,337.406 895.136,340.739 892.5,343.5 Z"/></g>
<g><path style="opacity:0.912" fill="#2270fe" d="M 144.5,308.5 C 144.706,311.495 144.04,314.162 142.5,316.5C 139.035,313.594 136.535,309.927 135,305.5C 132.516,297.957 131.683,290.291 132.5,282.5C 135.133,283.301 136.967,284.967 138,287.5C 140.884,294.315 143.05,301.315 144.5,308.5 Z"/></g>
<g><path style="opacity:1" fill="#4d8cfe" d="M 286.5,332.5 C 282.456,329.457 279.123,325.791 276.5,321.5C 288.8,309.032 300.966,296.365 313,283.5C 314.167,284.667 315.333,285.833 316.5,287C 306.365,302.109 296.365,317.276 286.5,332.5 Z"/></g>
<g><path style="opacity:1" fill="#434174" d="M 892.5,343.5 C 892.5,344.167 892.5,344.833 892.5,345.5C 890.939,347.491 889.939,349.824 889.5,352.5C 891.387,357.942 893.554,363.275 896,368.5C 896.499,372.152 896.665,375.818 896.5,379.5C 894.18,388.144 888.513,392.144 879.5,391.5C 872.458,391.905 865.625,390.905 859,388.5C 855.948,389.213 853.782,391.046 852.5,394C 849.653,394.944 847.153,394.444 845,392.5C 844.667,388.833 844.333,385.167 844,381.5C 839.087,377.136 833.254,374.97 826.5,375C 823.34,374.009 820.84,372.176 819,369.5C 819.615,357.862 814.115,353.362 802.5,356C 798.957,357.608 795.957,359.942 793.5,363C 790.454,365.174 787.12,365.841 783.5,365C 782.217,360.88 779.551,358.38 775.5,357.5C 769.144,358.34 765.31,355.673 764,349.5C 761.388,340.353 762.221,331.687 766.5,323.5C 772.384,318.065 777.051,311.731 780.5,304.5C 781.774,301.24 783.44,298.24 785.5,295.5C 788.335,292.835 791.335,290.335 794.5,288C 797.91,286.972 801.41,286.472 805,286.5C 813.772,287.533 822.439,289.2 831,291.5C 836.992,290.767 842.992,290.101 849,289.5C 859.883,290.012 869.216,294.012 877,301.5C 878.666,307.488 880.333,313.488 882,319.5C 885.585,325.002 888.919,330.669 892,336.5C 892.497,338.81 892.663,341.143 892.5,343.5 Z"/></g>
<g><path style="opacity:0.927" fill="#2270fe" d="M 144.5,318.5 C 144.963,315.779 145.629,313.112 146.5,310.5C 147.167,310.5 147.5,310.167 147.5,309.5C 147.5,309.167 147.5,308.833 147.5,308.5C 152.346,302.49 158.013,297.323 164.5,293C 166.5,292.333 168.5,292.333 170.5,293C 165.256,305.078 156.589,313.578 144.5,318.5 Z"/></g>
<g><path style="opacity:0.475" fill="#424464" d="M 198.5,278.5 C 198.5,279.167 198.833,279.5 199.5,279.5C 200.021,283.481 200.354,287.481 200.5,291.5C 200.5,293.167 200.5,294.833 200.5,296.5C 199.671,300.486 198.837,304.486 198,308.5C 197.517,307.552 197.351,306.552 197.5,305.5C 198.254,300.537 198.587,295.537 198.5,290.5C 199.354,289.368 199.354,288.035 198.5,286.5C 198.606,283.921 197.939,281.588 196.5,279.5C 196.842,278.662 197.508,278.328 198.5,278.5 Z"/></g>
<g><path style="opacity:0.926" fill="#246ffe" d="M 139.5,329.5 C 138.613,333.414 137.28,337.081 135.5,340.5C 131.444,336.389 128.944,331.389 128,325.5C 127.5,318.842 127.334,312.175 127.5,305.5C 130.292,305.452 132.125,306.785 133,309.5C 135.495,316.179 137.662,322.846 139.5,329.5 Z"/></g>
<g><path style="opacity:0.188" fill="#5076bc" d="M 780.5,304.5 C 777.051,311.731 772.384,318.065 766.5,323.5C 770.402,316.599 775.069,310.266 780.5,304.5 Z"/></g>
<g><path style="opacity:0.412" fill="#444256" d="M 196.5,312.5 C 196.833,312.5 197.167,312.5 197.5,312.5C 197.5,313.833 197.5,315.167 197.5,316.5C 197.013,317.473 196.513,318.473 196,319.5C 195.505,317.527 195.338,315.527 195.5,313.5C 196.167,313.5 196.5,313.167 196.5,312.5 Z"/></g>
<g><path style="opacity:0.882" fill="#236ffe" d="M 191.5,332.5 C 191.405,334.786 190.738,336.786 189.5,338.5C 184.537,332.426 182.704,325.426 184,317.5C 188.124,321.747 190.624,326.747 191.5,332.5 Z"/></g>
<g><path style="opacity:0.919" fill="#2271fe" d="M 138.5,341.5 C 138.062,341.565 137.728,341.399 137.5,341C 138.798,338.273 139.798,335.44 140.5,332.5C 141.167,332.5 141.5,332.167 141.5,331.5C 146.007,327.832 150.673,324.332 155.5,321C 158.608,319.241 161.941,318.408 165.5,318.5C 160.49,330.843 151.49,338.51 138.5,341.5 Z"/></g>
<g><path style="opacity:0.814" fill="#236efe" d="M 191.5,339.5 C 191.767,337.035 192.434,334.701 193.5,332.5C 196.297,330.205 198.964,327.705 201.5,325C 203.025,323.991 204.692,323.491 206.5,323.5C 204.272,331.396 199.272,336.729 191.5,339.5 Z"/></g>
<g><path style="opacity:0.938" fill="#2170fe" d="M 131.5,354.5 C 130.87,358.048 129.87,361.381 128.5,364.5C 126.629,364.141 125.129,363.141 124,361.5C 116.539,351.924 112.373,341.257 111.5,329.5C 116.278,330.773 120.111,333.439 123,337.5C 126.407,342.98 129.24,348.647 131.5,354.5 Z"/></g>
<g><path style="opacity:0.864" fill="#226ffe" d="M 187.5,345.5 C 187.829,348.228 187.163,350.562 185.5,352.5C 182.972,350.11 181.472,347.11 181,343.5C 180.173,339.459 180.34,335.459 181.5,331.5C 185.6,335.194 187.6,339.861 187.5,345.5 Z"/></g>
<g><path style="opacity:0.483" fill="#42425f" d="M 195.5,324.5 C 194.833,327.167 194.167,329.833 193.5,332.5C 192.434,334.701 191.767,337.035 191.5,339.5C 190.85,341.435 190.517,343.435 190.5,345.5C 189.833,345.5 189.5,345.833 189.5,346.5C 188.833,348.833 188.167,351.167 187.5,353.5C 186.85,355.435 186.517,357.435 186.5,359.5C 185.833,359.5 185.5,359.833 185.5,360.5C 184.304,363.421 183.304,366.421 182.5,369.5C 182.371,371.216 182.038,372.883 181.5,374.5C 179.905,377.285 178.905,380.285 178.5,383.5C 177.962,385.117 177.629,386.784 177.5,388.5C 177.068,389.71 176.401,390.71 175.5,391.5C 175.5,390.167 175.5,388.833 175.5,387.5C 175.629,385.784 175.962,384.117 176.5,382.5C 177.612,380.401 178.279,378.067 178.5,375.5C 179.5,372.833 180.5,370.167 181.5,367.5C 182.319,365.228 182.985,362.894 183.5,360.5C 184.371,357.888 185.037,355.221 185.5,352.5C 187.163,350.562 187.829,348.228 187.5,345.5C 188.612,343.401 189.279,341.067 189.5,338.5C 190.738,336.786 191.405,334.786 191.5,332.5C 192.167,329.833 192.833,327.167 193.5,324.5C 194.29,323.391 194.79,322.058 195,320.5C 195.49,321.793 195.657,323.127 195.5,324.5 Z"/></g>
<g><path style="opacity:0.885" fill="#226ffe" d="M 187.5,353.5 C 188.167,351.167 188.833,348.833 189.5,346.5C 190.167,346.5 190.5,346.167 190.5,345.5C 206.159,336.438 207.825,338.271 195.5,351C 193.091,352.707 190.425,353.54 187.5,353.5 Z"/></g>
<g><path style="opacity:0.933" fill="#2270fe" d="M 130.5,366.5 C 130.96,362.189 132.293,358.189 134.5,354.5C 140.724,348.11 148.224,344.11 157,342.5C 158.5,342.833 160,343.167 161.5,343.5C 155.402,352.728 147.402,359.894 137.5,365C 135.26,365.977 132.927,366.477 130.5,366.5 Z"/></g>
<g><path style="opacity:0.893" fill="#226ffe" d="M 183.5,360.5 C 182.985,362.894 182.319,365.228 181.5,367.5C 179.245,366.352 177.412,364.686 176,362.5C 173.671,357.681 171.838,352.681 170.5,347.5C 172.187,346.432 173.854,346.599 175.5,348C 179.077,351.671 181.744,355.838 183.5,360.5 Z"/></g>
<g><path style="opacity:0.192" fill="#547abd" d="M 892.5,345.5 C 893.349,352.549 895.516,359.215 899,365.5C 900.193,370.672 899.36,375.338 896.5,379.5C 896.665,375.818 896.499,372.152 896,368.5C 893.554,363.275 891.387,357.942 889.5,352.5C 889.939,349.824 890.939,347.491 892.5,345.5 Z"/></g>
<g><path style="opacity:0.946" fill="#2270fe" d="M 123.5,380.5 C 122.946,383.746 121.946,386.746 120.5,389.5C 110.567,379.287 105.234,366.954 104.5,352.5C 109.422,352.899 113.255,355.233 116,359.5C 119.429,366.295 121.929,373.295 123.5,380.5 Z"/></g>
<g><path style="opacity:0.892" fill="#226ffe" d="M 182.5,369.5 C 183.304,366.421 184.304,363.421 185.5,360.5C 186.167,360.5 186.5,360.167 186.5,359.5C 190.681,355.58 195.681,353.58 201.5,353.5C 197.646,361.681 191.312,367.014 182.5,369.5 Z"/></g>
<g><path style="opacity:1" fill="#ec8d9d" d="M 879.5,391.5 C 879.443,392.609 879.11,393.609 878.5,394.5C 877.069,395.78 876.402,397.447 876.5,399.5C 873.178,420.023 871.178,440.69 870.5,461.5C 862.982,470.209 856.815,479.876 852,490.5C 851.667,495.833 851.333,501.167 851,506.5C 851.057,515.773 846.557,520.773 837.5,521.5C 836.873,515.855 836.373,510.189 836,504.5C 833.139,496.25 830.473,487.917 828,479.5C 827.667,474.5 827.333,469.5 827,464.5C 826.163,462.156 824.829,460.156 823,458.5C 822.667,453.167 822.333,447.833 822,442.5C 820.324,438.473 818.158,434.806 815.5,431.5C 815.267,429.938 814.6,428.605 813.5,427.5C 813.946,424.99 813.28,422.99 811.5,421.5C 809.188,420.68 806.854,419.847 804.5,419C 781.281,405.055 771.614,384.555 775.5,357.5C 779.551,358.38 782.217,360.88 783.5,365C 787.12,365.841 790.454,365.174 793.5,363C 795.957,359.942 798.957,357.608 802.5,356C 814.115,353.362 819.615,357.862 819,369.5C 820.84,372.176 823.34,374.009 826.5,375C 833.254,374.97 839.087,377.136 844,381.5C 844.333,385.167 844.667,388.833 845,392.5C 847.153,394.444 849.653,394.944 852.5,394C 853.782,391.046 855.948,389.213 859,388.5C 865.625,390.905 872.458,391.905 879.5,391.5 Z"/></g>
<g><path style="opacity:0.888" fill="#2270fe" d="M 178.5,375.5 C 178.279,378.067 177.612,380.401 176.5,382.5C 170.321,376.142 167.154,368.476 167,359.5C 169.088,360.308 171.088,361.308 173,362.5C 175.349,366.741 177.182,371.075 178.5,375.5 Z"/></g>
<g><path style="opacity:0.933" fill="#2270fe" d="M 123.5,390.5 C 123.489,386.536 124.489,382.869 126.5,379.5C 127.167,379.5 127.5,379.167 127.5,378.5C 133.58,371.594 141.08,366.927 150,364.5C 151.92,364.938 153.754,365.605 155.5,366.5C 147.71,378.389 137.044,386.389 123.5,390.5 Z"/></g>
<g><path style="opacity:0.895" fill="#2270fe" d="M 178.5,383.5 C 178.905,380.285 179.905,377.285 181.5,374.5C 184.634,372.095 187.968,369.928 191.5,368C 194.053,367.149 196.386,367.482 198.5,369C 193.331,376.017 186.664,380.85 178.5,383.5 Z"/></g>
<g><path style="opacity:0.899" fill="#2270fd" d="M 175.5,387.5 C 175.5,388.833 175.5,390.167 175.5,391.5C 174.833,392.833 174.167,394.167 173.5,395.5C 170.944,394.457 168.777,392.79 167,390.5C 164.271,385.81 162.437,380.81 161.5,375.5C 168.329,376.997 172.996,380.997 175.5,387.5 Z"/></g>
<g><path style="opacity:0.915" fill="#226ffe" d="M 175.5,396.5 C 175.5,394.833 175.5,393.167 175.5,391.5C 176.401,390.71 177.068,389.71 177.5,388.5C 180.004,386.856 182.671,385.356 185.5,384C 188.882,383.176 192.216,383.343 195.5,384.5C 190.933,392.113 184.266,396.113 175.5,396.5 Z"/></g>
<g><path style="opacity:0.098" fill="#1f70fe" d="M 118.5,398.5 C 105.085,451.88 108.752,503.88 129.5,554.5C 129.334,559.844 129.501,565.177 130,570.5C 132.324,584.603 135.158,598.603 138.5,612.5C 114.352,612.454 90.3522,610.62 66.5,607C 46.8532,602.686 34.3532,590.852 29,571.5C 24.6225,541.658 16.9558,512.658 6,484.5C 3.36516,475.138 1.1985,465.805 -0.5,456.5C -0.5,450.167 -0.5,443.833 -0.5,437.5C 4.78605,406.389 23.286,390.389 55,389.5C 72.0487,389.971 88.2154,393.971 103.5,401.5C 103.833,401.333 104.167,401.167 104.5,401C 100.52,394.058 97.5199,386.724 95.5,379C 102.31,378.99 107.81,381.823 112,387.5C 114.193,391.23 116.36,394.897 118.5,398.5 Z"/></g>
<g><path style="opacity:0.935" fill="#236efe" d="M 172.5,402.5 C 172.702,404.95 172.369,407.283 171.5,409.5C 163.682,410.261 157.682,407.095 153.5,400C 160.487,396.098 166.82,396.931 172.5,402.5 Z"/></g>
<g><path style="opacity:0.919" fill="#2270fe" d="M 173.5,410.5 C 173.401,407.763 173.735,405.096 174.5,402.5C 180.703,397.543 187.036,397.376 193.5,402C 188.342,408.413 181.676,411.246 173.5,410.5 Z"/></g>
<g><path style="opacity:1" fill="#565387" d="M 876.5,399.5 C 879.899,400.016 883.232,400.85 886.5,402C 890.5,404.667 894.5,407.333 898.5,410C 901.471,410.794 904.471,411.461 907.5,412C 917.44,417.096 927.773,421.43 938.5,425C 940.001,426.252 941.668,427.252 943.5,428C 950.667,435.833 957.833,443.667 965,451.5C 966.944,455.723 968.611,460.056 970,464.5C 970.333,477.167 970.667,489.833 971,502.5C 974.049,509.334 974.216,516.334 971.5,523.5C 972.48,526.94 973.147,530.44 973.5,534C 971.862,546.781 971.195,559.614 971.5,572.5C 970.378,574.288 970.211,576.288 971,578.5C 974.16,581.074 974.16,583.741 971,586.5C 969.918,593.425 971.418,599.759 975.5,605.5C 976.417,606.127 977.417,606.461 978.5,606.5C 978.334,612.842 978.5,619.175 979,625.5C 979.708,626.381 980.542,627.047 981.5,627.5C 990.071,639.632 998.404,651.965 1006.5,664.5C 1006.93,665.71 1007.6,666.71 1008.5,667.5C 1014.45,676.619 1020.61,685.619 1027,694.5C 1027.59,698.31 1027.09,701.977 1025.5,705.5C 1023.12,706.902 1020.79,708.235 1018.5,709.5C 1017.85,709.196 1017.18,708.863 1016.5,708.5C 1010.44,709.047 1004.44,709.88 998.5,711C 996.965,713.624 995.798,716.457 995,719.5C 993.373,720.532 992.207,721.866 991.5,723.5C 988.756,724.072 987.923,725.738 989,728.5C 992.503,731.513 995.003,735.18 996.5,739.5C 994.809,745.574 990.976,748.241 985,747.5C 980.929,738.784 977.762,729.784 975.5,720.5C 975.5,719.833 975.5,719.167 975.5,718.5C 975.843,716.517 975.176,715.183 973.5,714.5C 975.152,710.603 974.319,707.269 971,704.5C 970.007,701.592 969.507,698.592 969.5,695.5C 970.25,681.606 970.416,667.606 970,653.5C 966.35,637.526 957.184,626.026 942.5,619C 936.055,616.599 929.555,614.432 923,612.5C 908.612,618.852 893.779,624.019 878.5,628C 879.566,629.159 879.233,629.992 877.5,630.5C 877.209,629.351 876.376,628.684 875,628.5C 866.597,630.434 858.097,630.934 849.5,630C 838.219,628.26 826.885,626.927 815.5,626C 812.244,624.526 808.911,623.36 805.5,622.5C 805.5,625.167 805.5,627.833 805.5,630.5C 795.122,630.804 784.789,630.304 774.5,629C 774.404,626.763 774.404,624.596 774.5,622.5C 775.339,621.359 776.006,620.026 776.5,618.5C 771.176,615.16 765.509,614.16 759.5,615.5C 758.662,615.158 758.328,614.492 758.5,613.5C 758.704,610.082 758.704,606.416 758.5,602.5C 761.203,592.414 762.203,582.08 761.5,571.5C 753.372,570.738 746.705,567.238 741.5,561C 729.387,554.576 716.721,550.076 703.5,547.5C 702.585,545.246 701.252,543.246 699.5,541.5C 702.768,537.729 706.268,534.062 710,530.5C 710.483,529.552 710.649,528.552 710.5,527.5C 711.715,521.735 714.882,517.402 720,514.5C 720.483,509.704 722.483,505.704 726,502.5C 726.452,499.123 727.118,495.789 728,492.5C 731.092,487.91 733.425,482.91 735,477.5C 738.716,473.452 742.05,469.118 745,464.5C 747.084,455.792 749.917,447.459 753.5,439.5C 756.967,436.26 760.967,433.76 765.5,432C 772.242,429.864 778.909,427.531 785.5,425C 794.994,424.382 804.328,425.215 813.5,427.5C 814.6,428.605 815.267,429.938 815.5,431.5C 817.657,436.136 819.323,440.969 820.5,446C 817.346,452.463 815.18,459.296 814,466.5C 813.721,477.858 813.055,489.192 812,500.5C 810.021,508.731 808.687,517.064 808,525.5C 807.383,541.843 807.55,558.176 808.5,574.5C 812.578,573.298 816.578,571.798 820.5,570C 830.33,569.052 839.997,569.885 849.5,572.5C 853.78,571.529 858.113,570.863 862.5,570.5C 860.524,544.731 861.357,519.064 865,493.5C 868.985,483.246 870.818,472.58 870.5,461.5C 871.178,440.69 873.178,420.023 876.5,399.5 Z"/></g>
<g><path style="opacity:0.907" fill="#226fff" d="M 170.5,418.5 C 170.5,420.833 170.5,423.167 170.5,425.5C 162.415,425.793 156.415,422.46 152.5,415.5C 153.09,414.201 154.09,413.368 155.5,413C 161.8,411.491 166.8,413.324 170.5,418.5 Z"/></g>
<g><path style="opacity:0.897" fill="#2270ff" d="M 172.5,425.5 C 172.5,423.167 172.5,420.833 172.5,418.5C 176.912,413.946 182.246,412.446 188.5,414C 189.91,414.368 190.91,415.201 191.5,416.5C 186.855,422.988 180.522,425.988 172.5,425.5 Z"/></g>
<g><path style="opacity:0.2" fill="#5276b8" d="M 811.5,421.5 C 813.28,422.99 813.946,424.99 813.5,427.5C 804.328,425.215 794.994,424.382 785.5,425C 778.909,427.531 772.242,429.864 765.5,432C 760.967,433.76 756.967,436.26 753.5,439.5C 754.526,436.628 756.192,434.128 758.5,432C 767.717,428.029 777.051,424.363 786.5,421C 794.243,420.267 801.91,420.767 809.5,422.5C 810.416,422.457 811.083,422.124 811.5,421.5 Z"/></g>
<g><path style="opacity:0.099" fill="#2070fe" d="M 170.5,432.5 C 170.997,441.979 172.33,451.313 174.5,460.5C 161.088,476.308 149.921,493.641 141,512.5C 135.655,524.462 132.155,536.796 130.5,549.5C 111.73,501.548 108.397,452.548 120.5,402.5C 126.923,395.425 134.923,391.425 144.5,390.5C 146.56,390.572 148.56,390.905 150.5,391.5C 151.521,392.002 151.688,392.668 151,393.5C 144.076,402.55 135.242,409.05 124.5,413C 126.001,414.252 127.668,415.252 129.5,416C 134.723,416.02 139.723,417.02 144.5,419C 147.73,420.724 148.064,422.724 145.5,425C 152.002,429.818 159.335,431.818 167.5,431C 168.527,431.513 169.527,432.013 170.5,432.5 Z"/></g>
<g><path style="opacity:0.981" fill="#43425d" d="M 155.5,217.5 C 156.167,218.167 156.833,218.833 157.5,219.5C 159.047,226.065 159.714,232.732 159.5,239.5C 159.563,244.203 159.229,248.87 158.5,253.5C 157.067,260.096 156.067,266.763 155.5,273.5C 154.781,275.764 154.448,278.097 154.5,280.5C 153.833,280.5 153.5,280.833 153.5,281.5C 152.358,285.071 151.691,288.738 151.5,292.5C 149.858,297.733 148.525,303.067 147.5,308.5C 147.5,308.833 147.5,309.167 147.5,309.5C 146.833,309.5 146.5,309.833 146.5,310.5C 145.629,313.112 144.963,315.779 144.5,318.5C 143.343,322.793 142.343,327.127 141.5,331.5C 140.833,331.5 140.5,331.833 140.5,332.5C 139.798,335.44 138.798,338.273 137.5,341C 137.728,341.399 138.062,341.565 138.5,341.5C 137.015,345.771 135.682,350.104 134.5,354.5C 132.293,358.189 130.96,362.189 130.5,366.5C 129.188,370.416 128.188,374.416 127.5,378.5C 126.833,378.5 126.5,378.833 126.5,379.5C 124.489,382.869 123.489,386.536 123.5,390.5C 122.192,394.4 121.192,398.4 120.5,402.5C 108.397,452.548 111.73,501.548 130.5,549.5C 130.784,551.415 130.451,553.081 129.5,554.5C 108.752,503.88 105.085,451.88 118.5,398.5C 119.323,395.539 119.99,392.539 120.5,389.5C 121.946,386.746 122.946,383.746 123.5,380.5C 125.172,375.151 126.839,369.818 128.5,364.5C 129.87,361.381 130.87,358.048 131.5,354.5C 133.03,349.907 134.364,345.24 135.5,340.5C 137.28,337.081 138.613,333.414 139.5,329.5C 140.344,325.126 141.344,320.793 142.5,316.5C 144.04,314.162 144.706,311.495 144.5,308.5C 146.278,303.728 147.611,298.728 148.5,293.5C 150.502,289.167 151.502,284.5 151.5,279.5C 152.407,277.343 153.073,275.01 153.5,272.5C 154.299,269.57 154.632,266.57 154.5,263.5C 156.386,255.41 157.386,247.076 157.5,238.5C 158.494,237.001 158.494,235.334 157.5,233.5C 157.778,228.011 156.445,223.011 153.5,218.5C 153.842,217.662 154.508,217.328 155.5,217.5 Z"/></g>
<g><path style="opacity:0.986" fill="#bdcbe6" d="M 210.5,426.5 C 210.664,429.187 210.497,431.854 210,434.5C 183.593,457.903 162.926,485.57 148,517.5C 140.022,536.421 137.356,556.088 140,576.5C 151.43,621.982 160.43,667.982 167,714.5C 167.611,721.164 168.111,727.83 168.5,734.5C 165.5,734.5 162.5,734.5 159.5,734.5C 155.087,693.353 148.087,652.686 138.5,612.5C 135.158,598.603 132.324,584.603 130,570.5C 129.501,565.177 129.334,559.844 129.5,554.5C 130.451,553.081 130.784,551.415 130.5,549.5C 132.155,536.796 135.655,524.462 141,512.5C 149.921,493.641 161.088,476.308 174.5,460.5C 175.5,460.167 176.167,459.5 176.5,458.5C 182.482,453.516 187.815,447.849 192.5,441.5C 197.935,435.723 203.935,430.723 210.5,426.5 Z"/></g>
<g><path style="opacity:0.997" fill="#aebfdf" d="M 423.5,424.5 C 458.147,449.986 483.647,482.652 500,522.5C 506.54,540.693 508.54,559.359 506,578.5C 502.162,595.185 498.328,611.852 494.5,628.5C 487.102,663.552 481.436,698.886 477.5,734.5C 471.833,734.5 466.167,734.5 460.5,734.5C 460.587,697.859 455.92,661.859 446.5,626.5C 442.487,612.475 436.321,599.475 428,587.5C 423.801,582.966 419.301,578.799 414.5,575C 410.526,572.398 406.193,570.898 401.5,570.5C 412.281,522.226 419.614,473.559 423.5,424.5 Z"/></g>
<g><path style="opacity:0.92" fill="#2371fe" d="M 192.5,441.5 C 187.815,447.849 182.482,453.516 176.5,458.5C 174.519,449.945 173.185,441.278 172.5,432.5C 179.133,427.176 185.8,427.176 192.5,432.5C 188.643,437.071 183.643,439.238 177.5,439C 182.435,440.267 187.435,441.1 192.5,441.5 Z"/></g>
<g><path style="opacity:0.882" fill="#434361" d="M 175.5,391.5 C 175.5,393.167 175.5,394.833 175.5,396.5C 175.167,398.5 174.833,400.5 174.5,402.5C 173.735,405.096 173.401,407.763 173.5,410.5C 173.599,413.237 173.265,415.904 172.5,418.5C 172.5,420.833 172.5,423.167 172.5,425.5C 172.5,427.833 172.5,430.167 172.5,432.5C 173.185,441.278 174.519,449.945 176.5,458.5C 176.167,459.5 175.5,460.167 174.5,460.5C 172.33,451.313 170.997,441.979 170.5,432.5C 170.5,430.167 170.5,427.833 170.5,425.5C 170.5,423.167 170.5,420.833 170.5,418.5C 170.704,415.482 171.037,412.482 171.5,409.5C 172.369,407.283 172.702,404.95 172.5,402.5C 172.674,400.139 173.007,397.806 173.5,395.5C 174.167,394.167 174.833,392.833 175.5,391.5 Z"/></g>
<g><path style="opacity:0.998" fill="#aebfdf" d="M 212.5,424.5 C 214.884,450.023 217.384,475.69 220,501.5C 223.727,524.86 227.56,548.193 231.5,571.5C 227.144,572.511 223.144,574.344 219.5,577C 207.772,587.622 199.438,600.455 194.5,615.5C 181.983,654.115 175.983,693.781 176.5,734.5C 173.833,734.5 171.167,734.5 168.5,734.5C 168.111,727.83 167.611,721.164 167,714.5C 160.43,667.982 151.43,621.982 140,576.5C 137.356,556.088 140.022,536.421 148,517.5C 162.926,485.57 183.593,457.903 210,434.5C 210.497,431.854 210.664,429.187 210.5,426.5C 210.833,425.5 211.5,424.833 212.5,424.5 Z"/></g>
<g><path style="opacity:1" fill="#e0e5f1" d="M 815.5,431.5 C 818.158,434.806 820.324,438.473 822,442.5C 822.333,447.833 822.667,453.167 823,458.5C 824.829,460.156 826.163,462.156 827,464.5C 827.333,469.5 827.667,474.5 828,479.5C 830.473,487.917 833.139,496.25 836,504.5C 836.373,510.189 836.873,515.855 837.5,521.5C 846.557,520.773 851.057,515.773 851,506.5C 851.333,501.167 851.667,495.833 852,490.5C 856.815,479.876 862.982,470.209 870.5,461.5C 870.818,472.58 868.985,483.246 865,493.5C 861.357,519.064 860.524,544.731 862.5,570.5C 858.113,570.863 853.78,571.529 849.5,572.5C 839.997,569.885 830.33,569.052 820.5,570C 816.578,571.798 812.578,573.298 808.5,574.5C 807.55,558.176 807.383,541.843 808,525.5C 808.687,517.064 810.021,508.731 812,500.5C 813.055,489.192 813.721,477.858 814,466.5C 815.18,459.296 817.346,452.463 820.5,446C 819.323,440.969 817.657,436.136 815.5,431.5 Z"/></g>
<g><path style="opacity:0.204" fill="#5679b6" d="M 878.5,394.5 C 882.779,396.093 887.112,397.593 891.5,399C 896.458,404.665 902.791,407.665 910.5,408C 922.488,413.332 934.488,418.666 946.5,424C 950.967,429.468 955.8,434.635 961,439.5C 969.3,448.107 973.8,458.44 974.5,470.5C 973.485,479.486 973.319,488.486 974,497.5C 974.153,500.151 974.987,502.484 976.5,504.5C 975.676,507.764 975.342,511.098 975.5,514.5C 974.65,536.853 974.65,559.186 975.5,581.5C 974.183,578.572 972.85,575.572 971.5,572.5C 971.195,559.614 971.862,546.781 973.5,534C 973.147,530.44 972.48,526.94 971.5,523.5C 974.216,516.334 974.049,509.334 971,502.5C 970.667,489.833 970.333,477.167 970,464.5C 968.611,460.056 966.944,455.723 965,451.5C 957.833,443.667 950.667,435.833 943.5,428C 941.668,427.252 940.001,426.252 938.5,425C 927.773,421.43 917.44,417.096 907.5,412C 904.471,411.461 901.471,410.794 898.5,410C 894.5,407.333 890.5,404.667 886.5,402C 883.232,400.85 879.899,400.016 876.5,399.5C 876.402,397.447 877.069,395.78 878.5,394.5 Z"/></g>
<g><path style="opacity:0.999" fill="#1955c0" d="M 1049.5,490.5 C 1041.78,500.891 1032.44,509.558 1021.5,516.5C 1020.83,516.167 1020.17,515.833 1019.5,515.5C 1017.9,503.881 1017.4,492.214 1018,480.5C 1019.24,477.676 1020.74,475.009 1022.5,472.5C 1037.06,464.972 1046.39,469.139 1050.5,485C 1049.59,486.699 1049.26,488.533 1049.5,490.5 Z"/></g>
<g><path style="opacity:0.098" fill="#1f70fe" d="M 1049.5,490.5 C 1061.18,502.182 1069.01,516.182 1073,532.5C 1088.18,534.348 1093.85,542.681 1090,557.5C 1085.97,563.561 1081.47,569.228 1076.5,574.5C 1073.56,576.934 1070.73,579.601 1068,582.5C 1067.59,582.043 1067.09,581.709 1066.5,581.5C 1047.72,593.95 1034.05,610.616 1025.5,631.5C 1024.39,633.419 1023.05,635.086 1021.5,636.5C 1009.57,634.522 997.9,631.522 986.5,627.5C 985.833,627.167 985.167,626.833 984.5,626.5C 984.267,624.938 983.6,623.605 982.5,622.5C 991.08,625.992 1000.08,629.492 1009.5,633C 1014.73,634.241 1019.4,633.241 1023.5,630C 1015.66,622.504 1008.16,614.671 1001,606.5C 994.238,610.128 987.738,614.128 981.5,618.5C 979.909,597.627 983.243,577.627 991.5,558.5C 992.117,558.389 992.617,558.056 993,557.5C 1004,560.011 1015.17,560.844 1026.5,560C 1036.16,556.517 1039.99,549.684 1038,539.5C 1033.97,529.92 1026.81,526.42 1016.5,529C 1011.71,531.955 1007.38,535.455 1003.5,539.5C 1008.71,531.279 1014.71,523.612 1021.5,516.5C 1032.44,509.558 1041.78,500.891 1049.5,490.5 Z"/></g>
<g><path style="opacity:0.999" fill="#1955bf" d="M 1002.5,534.5 C 1000.62,537.603 999.282,540.937 998.5,544.5C 997.833,544.167 997.167,543.833 996.5,543.5C 988.265,534.683 981.265,525.017 975.5,514.5C 975.342,511.098 975.676,507.764 976.5,504.5C 979.917,498.605 985.083,495.272 992,494.5C 1001.94,495.932 1007.1,501.599 1007.5,511.5C 1006.62,519.346 1004.95,527.013 1002.5,534.5 Z"/></g>
<g><path style="opacity:0.098" fill="#2070fd" d="M 975.5,514.5 C 981.265,525.017 988.265,534.683 996.5,543.5C 986.643,559.07 980.977,576.07 979.5,594.5C 978.883,594.389 978.383,594.056 978,593.5C 977.055,589.506 976.222,585.506 975.5,581.5C 974.65,559.186 974.65,536.853 975.5,514.5 Z"/></g>
<g><path style="opacity:1" fill="#30374e" d="M 699.5,541.5 C 701.252,543.246 702.585,545.246 703.5,547.5C 696.318,546.998 689.318,547.665 682.5,549.5C 677.576,544.125 671.909,543.291 665.5,547C 657.444,553.782 656.444,561.448 662.5,570C 667.611,573.975 672.944,574.475 678.5,571.5C 682.88,578.214 688.547,583.548 695.5,587.5C 690.669,592.163 685.669,596.663 680.5,601C 676.625,602.52 672.625,602.854 668.5,602C 660.658,594.325 652.992,586.492 645.5,578.5C 644.833,577.167 643.833,576.167 642.5,575.5C 639.871,572.369 637.038,569.369 634,566.5C 631.369,562.911 630.203,558.911 630.5,554.5C 631.745,549.028 634.745,544.694 639.5,541.5C 644.526,536.805 649.526,532.139 654.5,527.5C 658,524.169 661.666,521.002 665.5,518C 670.028,515.81 674.361,516.144 678.5,519C 685.4,526.669 692.4,534.169 699.5,541.5 Z"/></g>
<g><path style="opacity:0.213" fill="#5878b4" d="M 710.5,527.5 C 710.649,528.552 710.483,529.552 710,530.5C 706.268,534.062 702.768,537.729 699.5,541.5C 692.4,534.169 685.4,526.669 678.5,519C 674.361,516.144 670.028,515.81 665.5,518C 661.666,521.002 658,524.169 654.5,527.5C 646.906,529.429 641.906,534.096 639.5,541.5C 634.745,544.694 631.745,549.028 630.5,554.5C 630.211,551.351 630.711,548.351 632,545.5C 634.333,543.167 636.667,540.833 639,538.5C 642.376,530.606 648.209,525.439 656.5,523C 659.867,519.297 663.534,515.964 667.5,513C 670.537,511.15 673.537,511.15 676.5,513C 684.319,521.319 692.319,529.486 700.5,537.5C 704.215,534.452 707.548,531.119 710.5,527.5 Z"/></g>
<g><path style="opacity:0.979" fill="#50566d" d="M 1019.5,515.5 C 1020.17,515.833 1020.83,516.167 1021.5,516.5C 1014.71,523.612 1008.71,531.279 1003.5,539.5C 1001.61,540.973 999.939,542.64 998.5,544.5C 999.282,540.937 1000.62,537.603 1002.5,534.5C 1007.8,527.869 1013.46,521.535 1019.5,515.5 Z"/></g>
<g><path style="opacity:0.967" fill="#2270fe" d="M 1140.5,538.5 C 1140.5,541.5 1140.5,544.5 1140.5,547.5C 1138.38,553.122 1134.38,556.955 1128.5,559C 1119.4,562.441 1110.07,564.941 1100.5,566.5C 1099.66,566.158 1099.33,565.492 1099.5,564.5C 1101.83,555.685 1104.66,547.018 1108,538.5C 1113.37,527.067 1121.87,523.901 1133.5,529C 1136.88,531.529 1139.22,534.696 1140.5,538.5 Z"/></g>
<g><path style="opacity:0.999" fill="#1955c0" d="M 991.5,558.5 C 993.301,553.566 995.634,548.899 998.5,544.5C 999.939,542.64 1001.61,540.973 1003.5,539.5C 1007.38,535.455 1011.71,531.955 1016.5,529C 1026.81,526.42 1033.97,529.92 1038,539.5C 1039.99,549.684 1036.16,556.517 1026.5,560C 1015.17,560.844 1004,560.011 993,557.5C 992.617,558.056 992.117,558.389 991.5,558.5 Z"/></g>
<g><path style="opacity:1" fill="#da8799" d="M 654.5,527.5 C 649.526,532.139 644.526,536.805 639.5,541.5C 641.906,534.096 646.906,529.429 654.5,527.5 Z"/></g>
<g><path style="opacity:1" fill="#236ff9" d="M 682.5,549.5 C 680.216,551.361 678.382,553.695 677,556.5C 676.182,561.651 676.682,566.651 678.5,571.5C 672.944,574.475 667.611,573.975 662.5,570C 656.444,561.448 657.444,553.782 665.5,547C 671.909,543.291 677.576,544.125 682.5,549.5 Z"/></g>
<g><path style="opacity:0.098" fill="#216ffc" d="M 775.5,545.5 C 777.295,553.028 778.962,560.695 780.5,568.5C 773.805,567.439 767.138,567.272 760.5,568C 765.882,560.729 770.882,553.229 775.5,545.5 Z"/></g>
<g><path style="opacity:1" fill="#ec8d9d" d="M 703.5,547.5 C 716.721,550.076 729.387,554.576 741.5,561C 746.705,567.238 753.372,570.738 761.5,571.5C 762.203,582.08 761.203,592.414 758.5,602.5C 748.168,601.167 737.835,599.834 727.5,598.5C 725.095,597.232 722.428,596.565 719.5,596.5C 711.484,593.495 703.484,590.495 695.5,587.5C 688.547,583.548 682.88,578.214 678.5,571.5C 676.682,566.651 676.182,561.651 677,556.5C 678.382,553.695 680.216,551.361 682.5,549.5C 689.318,547.665 696.318,546.998 703.5,547.5 Z"/></g>
<g><path style="opacity:0.981" fill="#51576e" d="M 996.5,543.5 C 997.167,543.833 997.833,544.167 998.5,544.5C 995.634,548.899 993.301,553.566 991.5,558.5C 983.243,577.627 979.909,597.627 981.5,618.5C 980.557,620.001 980.891,621.335 982.5,622.5C 983.6,623.605 984.267,624.938 984.5,626.5C 983.504,626.586 982.671,626.252 982,625.5C 981.536,626.094 981.369,626.761 981.5,627.5C 980.542,627.047 979.708,626.381 979,625.5C 978.5,619.175 978.334,612.842 978.5,606.5C 979.05,602.582 979.383,598.582 979.5,594.5C 980.977,576.07 986.643,559.07 996.5,543.5 Z"/></g>
<g><path style="opacity:0.098" fill="#1f70fe" d="M 401.5,570.5 C 406.193,570.898 410.526,572.398 414.5,575C 419.301,578.799 423.801,582.966 428,587.5C 436.321,599.475 442.487,612.475 446.5,626.5C 426.83,625.917 407.164,625.25 387.5,624.5C 390.964,613.647 393.964,602.647 396.5,591.5C 398.545,584.614 400.211,577.614 401.5,570.5 Z"/></g>
<g><path style="opacity:0.098" fill="#1f70fe" d="M 231.5,571.5 C 232.916,578.917 234.583,586.25 236.5,593.5C 238.167,601.5 239.833,609.5 241.5,617.5C 225.829,616.924 210.162,616.257 194.5,615.5C 199.438,600.455 207.772,587.622 219.5,577C 223.144,574.344 227.144,572.511 231.5,571.5 Z"/></g>
<g><path style="opacity:0.968" fill="#2170fe" d="M 1026.5,635.5 C 1030.95,623.269 1037.45,612.269 1046,602.5C 1050.2,598.633 1054.03,594.467 1057.5,590C 1062.55,587.143 1067.55,584.309 1072.5,581.5C 1073.49,581.672 1074.16,581.338 1074.5,580.5C 1075.49,580.672 1076.16,580.338 1076.5,579.5C 1084.15,575.907 1091.81,575.741 1099.5,579C 1107.29,585.859 1108.46,593.692 1103,602.5C 1098.38,608.053 1092.55,609.886 1085.5,608C 1078.89,605.361 1072.55,602.194 1066.5,598.5C 1058.41,613.425 1047.07,625.259 1032.5,634C 1030.56,634.813 1028.56,635.313 1026.5,635.5 Z"/></g>
<g><path style="opacity:0.999" fill="#424074" d="M 645.5,578.5 C 652.992,586.492 660.658,594.325 668.5,602C 672.625,602.854 676.625,602.52 680.5,601C 685.669,596.663 690.669,592.163 695.5,587.5C 703.484,590.495 711.484,593.495 719.5,596.5C 716.475,596.123 713.475,595.956 710.5,596C 727.5,601.6 743.833,608.433 759.5,616.5C 764.429,618.481 769.429,620.481 774.5,622.5C 774.404,624.596 774.404,626.763 774.5,629C 784.789,630.304 795.122,630.804 805.5,630.5C 818.414,632.859 831.581,633.859 845,633.5C 851.833,633.333 858.667,633.167 865.5,633C 869.681,632.814 873.681,631.981 877.5,630.5C 879.233,629.992 879.566,629.159 878.5,628C 893.779,624.019 908.612,618.852 923,612.5C 929.555,614.432 936.055,616.599 942.5,619C 957.184,626.026 966.35,637.526 970,653.5C 970.416,667.606 970.25,681.606 969.5,695.5C 969.507,698.592 970.007,701.592 971,704.5C 974.319,707.269 975.152,710.603 973.5,714.5C 965.048,739.095 947.715,751.595 921.5,752C 912.518,752.88 903.518,753.38 894.5,753.5C 893.338,740.982 892.172,728.316 891,715.5C 888.063,714.183 885.23,714.183 882.5,715.5C 879.91,716.128 877.577,717.295 875.5,719C 864.007,720.785 852.507,722.285 841,723.5C 837.5,723.333 834,723.167 830.5,723C 825.136,720.318 819.802,717.651 814.5,715C 802.758,712.37 800.758,715.37 808.5,724C 794.086,723.107 785.253,729.607 782,743.5C 781.436,748.194 781.603,752.86 782.5,757.5C 779.239,755.258 775.572,753.925 771.5,753.5C 771.058,752.261 770.391,751.261 769.5,750.5C 762.235,745.191 754.568,740.358 746.5,736C 726.287,717.723 703.621,703.223 678.5,692.5C 669.689,688.255 661.689,682.755 654.5,676C 641.651,662.412 629.651,648.245 618.5,633.5C 610.979,622.649 610.645,611.649 617.5,600.5C 622.643,591.858 629.643,585.025 638.5,580C 640.74,579.023 643.073,578.523 645.5,578.5 Z"/></g>
<g><path style="opacity:1" fill="#285ab7" d="M 971.5,572.5 C 972.85,575.572 974.183,578.572 975.5,581.5C 976.222,585.506 977.055,589.506 978,593.5C 978.383,594.056 978.883,594.389 979.5,594.5C 979.383,598.582 979.05,602.582 978.5,606.5C 977.417,606.461 976.417,606.127 975.5,605.5C 971.418,599.759 969.918,593.425 971,586.5C 974.16,583.741 974.16,581.074 971,578.5C 970.211,576.288 970.378,574.288 971.5,572.5 Z"/></g>
<g><path style="opacity:0.239" fill="#5c76ac" d="M 642.5,575.5 C 643.833,576.167 644.833,577.167 645.5,578.5C 643.073,578.523 640.74,579.023 638.5,580C 629.643,585.025 622.643,591.858 617.5,600.5C 622.531,588.802 630.865,580.469 642.5,575.5 Z"/></g>
<g><path style="opacity:0.971" fill="#515568" d="M 1099.5,564.5 C 1099.33,565.492 1099.66,566.158 1100.5,566.5C 1092.21,570.31 1084.21,574.644 1076.5,579.5C 1075.51,579.328 1074.84,579.662 1074.5,580.5C 1073.51,580.328 1072.84,580.662 1072.5,581.5C 1067.55,584.309 1062.55,587.143 1057.5,590C 1054.03,594.467 1050.2,598.633 1046,602.5C 1037.45,612.269 1030.95,623.269 1026.5,635.5C 1025.11,638.007 1024.11,640.673 1023.5,643.5C 1021.9,644.287 1021.23,645.62 1021.5,647.5C 1018.2,653.144 1014.87,658.811 1011.5,664.5C 1010.17,665.167 1009.17,666.167 1008.5,667.5C 1007.6,666.71 1006.93,665.71 1006.5,664.5C 1008.26,663.738 1009.26,662.404 1009.5,660.5C 1015.23,653.043 1019.23,645.043 1021.5,636.5C 1023.05,635.086 1024.39,633.419 1025.5,631.5C 1034.05,610.616 1047.72,593.95 1066.5,581.5C 1067.09,581.709 1067.59,582.043 1068,582.5C 1070.73,579.601 1073.56,576.934 1076.5,574.5C 1084.05,570.892 1091.72,567.558 1099.5,564.5 Z"/></g>
<g><path style="opacity:1" fill="#afc0e0" d="M 396.5,591.5 C 393.964,602.647 390.964,613.647 387.5,624.5C 386.87,628.048 385.87,631.381 384.5,634.5C 382.46,637.038 379.794,638.871 376.5,640C 367.467,643.474 358.134,645.807 348.5,647C 321.503,648.977 294.837,647.144 268.5,641.5C 264.454,627.941 260.788,614.274 257.5,600.5C 304.786,611.144 351.119,608.144 396.5,591.5 Z"/></g>
<g><path style="opacity:1" fill="#bfcde6" d="M 236.5,593.5 C 242.972,596.101 249.639,598.101 256.5,599.5C 256.5,600.167 256.833,600.5 257.5,600.5C 260.788,614.274 264.454,627.941 268.5,641.5C 261.442,639.985 254.442,638.319 247.5,636.5C 245.345,630.214 243.345,623.88 241.5,617.5C 239.833,609.5 238.167,601.5 236.5,593.5 Z"/></g>
<g><path style="opacity:0.246" fill="#5e77ac" d="M 719.5,596.5 C 722.428,596.565 725.095,597.232 727.5,598.5C 732.613,600.934 737.946,603.1 743.5,605C 748.852,607.339 753.852,610.172 758.5,613.5C 758.328,614.492 758.662,615.158 759.5,615.5C 759.5,615.833 759.5,616.167 759.5,616.5C 743.833,608.433 727.5,601.6 710.5,596C 713.475,595.956 716.475,596.123 719.5,596.5 Z"/></g>
<g><path style="opacity:0.098" fill="#256ff9" d="M 727.5,598.5 C 737.835,599.834 748.168,601.167 758.5,602.5C 758.704,606.416 758.704,610.082 758.5,613.5C 753.852,610.172 748.852,607.339 743.5,605C 737.946,603.1 732.613,600.934 727.5,598.5 Z"/></g>
<g><path style="opacity:0.999" fill="#1955c0" d="M 982.5,622.5 C 980.891,621.335 980.557,620.001 981.5,618.5C 987.738,614.128 994.238,610.128 1001,606.5C 1008.16,614.671 1015.66,622.504 1023.5,630C 1019.4,633.241 1014.73,634.241 1009.5,633C 1000.08,629.492 991.08,625.992 982.5,622.5 Z"/></g>
<g><path style="opacity:0.252" fill="#4d4e4e" d="M 774.5,622.5 C 769.429,620.481 764.429,618.481 759.5,616.5C 759.5,616.167 759.5,615.833 759.5,615.5C 765.509,614.16 771.176,615.16 776.5,618.5C 776.006,620.026 775.339,621.359 774.5,622.5 Z"/></g>
<g><path style="opacity:1" fill="#c4c8d6" d="M 877.5,630.5 C 873.681,631.981 869.681,632.814 865.5,633C 858.667,633.167 851.833,633.333 845,633.5C 831.581,633.859 818.414,632.859 805.5,630.5C 805.5,627.833 805.5,625.167 805.5,622.5C 808.911,623.36 812.244,624.526 815.5,626C 826.885,626.927 838.219,628.26 849.5,630C 858.097,630.934 866.597,630.434 875,628.5C 876.376,628.684 877.209,629.351 877.5,630.5 Z"/></g>
<g><path style="opacity:0.17" fill="#7f7f80" d="M 984.5,626.5 C 985.167,626.833 985.833,627.167 986.5,627.5C 993.933,638.712 1001.6,649.712 1009.5,660.5C 1009.26,662.404 1008.26,663.738 1006.5,664.5C 998.404,651.965 990.071,639.632 981.5,627.5C 981.369,626.761 981.536,626.094 982,625.5C 982.671,626.252 983.504,626.586 984.5,626.5 Z"/></g>
<g><path style="opacity:1" fill="#e3e8f4" d="M 384.5,634.5 C 382.513,642.964 380.013,651.298 377,659.5C 369.369,666.233 360.536,670.733 350.5,673C 330.8,677.282 311.133,676.949 291.5,672C 279.09,669.197 267.09,665.197 255.5,660C 251.749,652.58 249.082,644.746 247.5,636.5C 254.442,638.319 261.442,639.985 268.5,641.5C 294.837,647.144 321.503,648.977 348.5,647C 358.134,645.807 367.467,643.474 376.5,640C 379.794,638.871 382.46,637.038 384.5,634.5 Z"/></g>
<g><path style="opacity:0.968" fill="#2270ff" d="M 1021.5,647.5 C 1021.23,645.62 1021.9,644.287 1023.5,643.5C 1032.75,641.702 1042.09,640.369 1051.5,639.5C 1066.16,641.136 1071.66,649.136 1068,663.5C 1060.63,673.459 1051.79,674.959 1041.5,668C 1034.6,661.271 1027.94,654.438 1021.5,647.5 Z"/></g>
<g><path style="opacity:0.184" fill="#7f7f80" d="M 1011.5,664.5 C 1018.22,673.592 1024.72,682.926 1031,692.5C 1031.91,698.017 1030.07,702.35 1025.5,705.5C 1027.09,701.977 1027.59,698.31 1027,694.5C 1020.61,685.619 1014.45,676.619 1008.5,667.5C 1009.17,666.167 1010.17,665.167 1011.5,664.5 Z"/></g>
<g><path style="opacity:1" fill="#555285" d="M 678.5,692.5 C 703.621,703.223 726.287,717.723 746.5,736C 754.568,740.358 762.235,745.191 769.5,750.5C 753.964,753.513 738.297,754.346 722.5,753C 712.758,754.259 703.091,755.926 693.5,758C 684.409,760.037 677.909,756.871 674,748.5C 672.617,737.221 672.117,725.888 672.5,714.5C 672.952,706.685 674.952,699.352 678.5,692.5 Z"/></g>
<g><path style="opacity:0.983" fill="#2570fb" d="M 1018.5,709.5 C 1017.98,712.899 1017.15,716.232 1016,719.5C 1013.6,722.067 1011.1,724.4 1008.5,726.5C 1002.45,727.198 996.787,726.198 991.5,723.5C 992.207,721.866 993.373,720.532 995,719.5C 995.798,716.457 996.965,713.624 998.5,711C 1004.44,709.88 1010.44,709.047 1016.5,708.5C 1017.18,708.863 1017.85,709.196 1018.5,709.5 Z"/></g>
<g><path style="opacity:0.985" fill="#30374e" d="M 672.5,714.5 C 672.117,725.888 672.617,737.221 674,748.5C 677.909,756.871 684.409,760.037 693.5,758C 703.091,755.926 712.758,754.259 722.5,753C 738.297,754.346 753.964,753.513 769.5,750.5C 770.391,751.261 771.058,752.261 771.5,753.5C 775.572,753.925 779.239,755.258 782.5,757.5C 784.224,762.394 787.557,765.894 792.5,768C 801.312,768.09 809.979,769.09 818.5,771C 831.5,771.333 844.5,771.667 857.5,772C 866.32,778.996 876.32,781.829 887.5,780.5C 889.833,780.5 892.167,780.5 894.5,780.5C 894.5,771.5 894.5,762.5 894.5,753.5C 903.518,753.38 912.518,752.88 921.5,752C 947.715,751.595 965.048,739.095 973.5,714.5C 975.176,715.183 975.843,716.517 975.5,718.5C 974.167,719.167 974.167,719.833 975.5,720.5C 977.762,729.784 980.929,738.784 985,747.5C 990.976,748.241 994.809,745.574 996.5,739.5C 995.003,735.18 992.503,731.513 989,728.5C 987.923,725.738 988.756,724.072 991.5,723.5C 996.787,726.198 1002.45,727.198 1008.5,726.5C 1025.53,728.588 1041.53,733.755 1056.5,742C 1060.98,747.669 1060.31,752.669 1054.5,757C 1043.74,762.587 1032.4,766.587 1020.5,769C 988.445,775.382 956.112,779.715 923.5,782C 898.691,783.772 874.025,785.272 849.5,786.5C 809.5,786.5 769.5,786.5 729.5,786.5C 681.436,784.85 633.436,780.684 585.5,774C 564.218,771.597 543.885,765.931 524.5,757C 517.655,750.914 517.988,745.247 525.5,740C 536.954,734.404 548.954,730.404 561.5,728C 598.192,720.955 635.192,716.455 672.5,714.5 Z"/></g>
<g><path style="opacity:1" fill="#555286" d="M 882.5,715.5 C 875.098,726.774 872.265,739.108 874,752.5C 877.726,762.283 882.226,771.616 887.5,780.5C 876.32,781.829 866.32,778.996 857.5,772C 844.5,771.667 831.5,771.333 818.5,771C 809.979,769.09 801.312,768.09 792.5,768C 787.557,765.894 784.224,762.394 782.5,757.5C 781.603,752.86 781.436,748.194 782,743.5C 785.253,729.607 794.086,723.107 808.5,724C 800.758,715.37 802.758,712.37 814.5,715C 819.802,717.651 825.136,720.318 830.5,723C 834,723.167 837.5,723.333 841,723.5C 852.507,722.285 864.007,720.785 875.5,719C 877.577,717.295 879.91,716.128 882.5,715.5 Z"/></g>
<g><path style="opacity:1" fill="#4a4774" d="M 894.5,753.5 C 894.5,762.5 894.5,771.5 894.5,780.5C 892.167,780.5 889.833,780.5 887.5,780.5C 882.226,771.616 877.726,762.283 874,752.5C 872.265,739.108 875.098,726.774 882.5,715.5C 885.23,714.183 888.063,714.183 891,715.5C 892.172,728.316 893.338,740.982 894.5,753.5 Z"/></g>
</svg>
