<?xml version="1.0" encoding="UTF-8"?>
<!DOCTYPE svg PUBLIC "-//W3C//DTD SVG 1.1//EN" "http://www.w3.org/Graphics/SVG/1.1/DTD/svg11.dtd">
<svg xmlns="http://www.w3.org/2000/svg" version="1.1" width="999px" height="797px" style="shape-rendering:geometricPrecision; text-rendering:geometricPrecision; image-rendering:optimizeQuality; fill-rule:evenodd; clip-rule:evenodd" xmlns:xlink="http://www.w3.org/1999/xlink">
<g><path style="opacity:0.098" fill="#1f6ffe" d="M 403.5,-0.5 C 419.833,-0.5 436.167,-0.5 452.5,-0.5C 525.182,6.10992 594.516,25.2766 660.5,57C 738.278,94.8564 810.278,141.19 876.5,196C 946.244,258.476 964.744,333.642 932,421.5C 926.139,434.16 919.306,446.16 911.5,457.5C 866.167,457.907 820.834,458.241 775.5,458.5C 773.359,454.531 771.026,450.698 768.5,447C 776.7,432.807 774.7,420.307 762.5,409.5C 761.21,402.267 758.21,395.934 753.5,390.5C 752.921,382.344 749.421,375.678 743,370.5C 739.76,365.112 737.926,359.279 737.5,353C 739.175,341.976 741.675,331.143 745,320.5C 746.273,313.705 744.607,307.705 740,302.5C 733.095,294.076 724.929,287.41 715.5,282.5C 715.667,259.498 715.5,236.498 715,213.5C 713.014,204.182 707.514,198.015 698.5,195C 592.833,194.333 487.167,194.333 381.5,195C 372.486,198.015 366.986,204.182 365,213.5C 364.333,291.5 364.333,369.5 365,447.5C 365.985,452.815 368.485,457.148 372.5,460.5C 314.34,462.261 256.007,462.761 197.5,462C 199.708,461.809 201.708,461.309 203.5,460.5C 203.5,446.833 203.5,433.167 203.5,419.5C 183.165,420.771 162.832,420.771 142.5,419.5C 142.5,433.5 142.5,447.5 142.5,461.5C 145.388,460.99 147.721,461.656 149.5,463.5C 144.5,463.5 139.5,463.5 134.5,463.5C 109.041,446.214 86.5406,425.547 67,401.5C 49.9285,379.454 41.0951,354.454 40.5,326.5C 40.9532,283.389 60.6199,252.889 99.5,235C 124.996,226.459 150.996,219.793 177.5,215C 202.18,209.915 225.847,201.915 248.5,191C 265.372,182.134 279.872,170.301 292,155.5C 298.152,147.364 301.318,138.197 301.5,128C 300.164,117.816 298.664,107.65 297,97.5C 292.528,64.2854 304.361,38.7854 332.5,21C 354.633,8.45298 378.3,1.28631 403.5,-0.5 Z"/></g>
<g><path style="opacity:0.098" fill="#1f70ff" d="M 105.5,33.5 C 123.159,35.4782 129.992,45.1449 126,62.5C 118.164,74.121 107.997,76.621 95.5,70C 84.6372,58.6907 84.9705,47.6907 96.5,37C 99.5711,35.7043 102.571,34.5377 105.5,33.5 Z"/></g>
<g><path style="opacity:0.098" fill="#1f70ff" d="M 171.5,96.5 C 195.733,98.308 206.9,111.308 205,135.5C 199.076,154.385 186.242,162.552 166.5,160C 152.792,156.292 144.626,147.459 142,133.5C 141.328,112.682 151.162,100.348 171.5,96.5 Z"/></g>
<g><path style="opacity:0.098" fill="#2070ff" d="M 921.5,101.5 C 935.243,101.994 939.743,108.661 935,121.5C 928.333,128.167 921.667,128.167 915,121.5C 910.488,112.536 912.655,105.869 921.5,101.5 Z"/></g>
<g><path style="opacity:1" fill="#474157" d="M 715.5,282.5 C 710.555,281.181 705.555,280.014 700.5,279C 695.324,279.132 690.324,278.965 685.5,278.5C 685.833,278.5 686.167,278.5 686.5,278.5C 687.497,258.674 687.83,238.674 687.5,218.5C 589.167,218.5 490.833,218.5 392.5,218.5C 392.167,292.669 392.501,366.669 393.5,440.5C 450.833,440.5 508.167,440.5 565.5,440.5C 565.163,447.322 566.663,453.655 570,459.5C 571.579,461.041 573.413,462.208 575.5,463C 584.552,463.291 593.552,462.625 602.5,461C 612.23,456.466 621.897,451.966 631.5,447.5C 629.78,453.437 628.446,459.437 627.5,465.5C 546.57,466.663 465.57,466.83 384.5,466C 380.095,464.963 376.095,463.129 372.5,460.5C 368.485,457.148 365.985,452.815 365,447.5C 364.333,369.5 364.333,291.5 365,213.5C 366.986,204.182 372.486,198.015 381.5,195C 487.167,194.333 592.833,194.333 698.5,195C 707.514,198.015 713.014,204.182 715,213.5C 715.5,236.498 715.667,259.498 715.5,282.5 Z"/></g>
<g><path style="opacity:1" fill="#9d9ba8" d="M 686.5,278.5 C 686.5,258.833 686.5,239.167 686.5,219.5C 588.833,219.5 491.167,219.5 393.5,219.5C 393.5,293.167 393.5,366.833 393.5,440.5C 392.501,366.669 392.167,292.669 392.5,218.5C 490.833,218.5 589.167,218.5 687.5,218.5C 687.83,238.674 687.497,258.674 686.5,278.5 Z"/></g>
<g><path style="opacity:1" fill="#ececf3" d="M 686.5,278.5 C 686.167,278.5 685.833,278.5 685.5,278.5C 678.467,277.469 671.467,277.469 664.5,278.5C 662.19,282.254 660.357,286.254 659,290.5C 654.878,294.89 650.211,298.557 645,301.5C 642.169,306.995 643.669,310.828 649.5,313C 653.208,313.838 656.875,314.671 660.5,315.5C 654.331,329.47 655.498,342.803 664,355.5C 666.727,358.731 669.894,361.397 673.5,363.5C 674.664,369.472 674.83,375.472 674,381.5C 673.521,384.624 672.354,387.457 670.5,390C 665.16,392.003 660.16,394.503 655.5,397.5C 654.183,397.179 652.849,396.846 651.5,396.5C 649.962,396.453 648.962,397.12 648.5,398.5C 641.779,397.751 635.446,398.918 629.5,402C 621.53,408.969 613.864,416.302 606.5,424C 600.769,427.349 594.769,429.682 588.5,431C 590.904,427.028 591.904,422.694 591.5,418C 591.317,412.603 590.65,407.27 589.5,402C 591.805,392.804 593.472,383.471 594.5,374C 594.673,369.196 593.673,364.696 591.5,360.5C 592.496,360.586 593.329,360.252 594,359.5C 606.107,331.761 600.274,308.594 576.5,290C 550.88,275.947 527.713,279.114 507,299.5C 491.026,321.348 490.359,343.681 505,366.5C 523.712,387.82 546.212,392.82 572.5,381.5C 570.385,401.201 568.052,420.867 565.5,440.5C 508.167,440.5 450.833,440.5 393.5,440.5C 393.5,366.833 393.5,293.167 393.5,219.5C 491.167,219.5 588.833,219.5 686.5,219.5C 686.5,239.167 686.5,258.833 686.5,278.5 Z"/></g>
<g><path style="opacity:1" fill="#3f3b4e" d="M 685.5,278.5 C 690.324,278.965 695.324,279.132 700.5,279C 705.555,280.014 710.555,281.181 715.5,282.5C 724.929,287.41 733.095,294.076 740,302.5C 744.607,307.705 746.273,313.705 745,320.5C 741.675,331.143 739.175,341.976 737.5,353C 737.926,359.279 739.76,365.112 743,370.5C 749.421,375.678 752.921,382.344 753.5,390.5C 751.867,398.904 754.867,405.238 762.5,409.5C 774.7,420.307 776.7,432.807 768.5,447C 771.026,450.698 773.359,454.531 775.5,458.5C 775.927,464.242 773.26,467.408 767.5,468C 768.727,469.587 768.394,470.921 766.5,472C 764.527,472.495 762.527,472.662 760.5,472.5C 757.059,471.807 753.725,470.807 750.5,469.5C 743.181,465.17 736.181,460.337 729.5,455C 719.907,455.284 710.573,453.951 701.5,451C 700.667,450.167 699.833,449.333 699,448.5C 698.934,437.095 698.267,425.762 697,414.5C 695.878,412.376 694.378,410.543 692.5,409C 688.645,408.289 684.979,407.122 681.5,405.5C 680.68,403.86 679.847,402.193 679,400.5C 678.895,388.83 678.895,377.164 679,365.5C 676.333,360.833 673.667,356.167 671,351.5C 671.246,343.444 671.913,335.444 673,327.5C 670.921,321.253 666.754,317.253 660.5,315.5C 656.875,314.671 653.208,313.838 649.5,313C 643.669,310.828 642.169,306.995 645,301.5C 650.211,298.557 654.878,294.89 659,290.5C 660.357,286.254 662.19,282.254 664.5,278.5C 671.467,277.469 678.467,277.469 685.5,278.5 Z"/></g>
<g><path style="opacity:1" fill="#2b73fe" d="M 591.5,360.5 C 590.606,357.043 588.94,354.043 586.5,351.5C 594.743,323.488 585.409,303.988 558.5,293C 534.589,288.706 517.422,297.539 507,319.5C 500.353,347.042 510.186,365.875 536.5,376C 546.962,378.58 556.962,377.413 566.5,372.5C 568.505,374.334 570.672,376.001 573,377.5C 573.579,378.928 573.412,380.262 572.5,381.5C 546.212,392.82 523.712,387.82 505,366.5C 490.359,343.681 491.026,321.348 507,299.5C 527.713,279.114 550.88,275.947 576.5,290C 600.274,308.594 606.107,331.761 594,359.5C 593.329,360.252 592.496,360.586 591.5,360.5 Z"/></g>
<g><path style="opacity:1" fill="#eaebf3" d="M 586.5,351.5 C 581.864,347.842 577.197,344.175 572.5,340.5C 572.167,340.833 571.833,341.167 571.5,341.5C 573.5,345.5 575.5,349.5 577.5,353.5C 571.956,355.855 566.789,358.855 562,362.5C 561.333,364.167 561.333,365.833 562,367.5C 563.707,369.037 565.207,370.704 566.5,372.5C 556.962,377.413 546.962,378.58 536.5,376C 510.186,365.875 500.353,347.042 507,319.5C 517.422,297.539 534.589,288.706 558.5,293C 585.409,303.988 594.743,323.488 586.5,351.5 Z"/></g>
<g><path style="opacity:1" fill="#2672fe" d="M 528.5,307.5 C 532.131,307.16 535.464,307.994 538.5,310C 550.587,317.125 562.42,324.625 574,332.5C 574.667,334.167 574.667,335.833 574,337.5C 561.749,345.377 549.249,352.877 536.5,360C 532.845,362.335 529.679,361.835 527,358.5C 526.333,342.5 526.333,326.5 527,310.5C 527.513,309.473 528.013,308.473 528.5,307.5 Z"/></g>
<g><path style="opacity:1" fill="#f6bec8" d="M 660.5,315.5 C 666.754,317.253 670.921,321.253 673,327.5C 671.913,335.444 671.246,343.444 671,351.5C 673.667,356.167 676.333,360.833 679,365.5C 678.895,377.164 678.895,388.83 679,400.5C 679.847,402.193 680.68,403.86 681.5,405.5C 672.31,404.212 663.643,401.545 655.5,397.5C 660.16,394.503 665.16,392.003 670.5,390C 672.354,387.457 673.521,384.624 674,381.5C 674.83,375.472 674.664,369.472 673.5,363.5C 669.894,361.397 666.727,358.731 664,355.5C 655.498,342.803 654.331,329.47 660.5,315.5 Z"/></g>
<g><path style="opacity:1" fill="#d9dae0" d="M 379.5,324.5 C 384.325,324.488 386.491,326.821 386,331.5C 383.048,335.482 380.048,335.482 377,331.5C 376.333,330.167 376.333,328.833 377,327.5C 378.045,326.627 378.878,325.627 379.5,324.5 Z"/></g>
<g><path style="opacity:1" fill="#fbc1cb" d="M 586.5,351.5 C 588.94,354.043 590.606,357.043 591.5,360.5C 593.673,364.696 594.673,369.196 594.5,374C 593.472,383.471 591.805,392.804 589.5,402C 590.65,407.27 591.317,412.603 591.5,418C 591.904,422.694 590.904,427.028 588.5,431C 594.769,429.682 600.769,427.349 606.5,424C 613.864,416.302 621.53,408.969 629.5,402C 635.446,398.918 641.779,397.751 648.5,398.5C 651.94,415.064 652.773,431.73 651,448.5C 649.32,454.18 645.654,457.846 640,459.5C 636.902,455.641 634.569,451.308 633,446.5C 632.617,447.056 632.117,447.389 631.5,447.5C 621.897,451.966 612.23,456.466 602.5,461C 593.552,462.625 584.552,463.291 575.5,463C 573.413,462.208 571.579,461.041 570,459.5C 566.663,453.655 565.163,447.322 565.5,440.5C 568.052,420.867 570.385,401.201 572.5,381.5C 573.412,380.262 573.579,378.928 573,377.5C 570.672,376.001 568.505,374.334 566.5,372.5C 565.207,370.704 563.707,369.037 562,367.5C 561.333,365.833 561.333,364.167 562,362.5C 566.789,358.855 571.956,355.855 577.5,353.5C 575.5,349.5 573.5,345.5 571.5,341.5C 571.833,341.167 572.167,340.833 572.5,340.5C 577.197,344.175 581.864,347.842 586.5,351.5 Z"/></g>
<g><path style="opacity:0.999" fill="#efbac7" d="M 753.5,390.5 C 758.21,395.934 761.21,402.267 762.5,409.5C 754.867,405.238 751.867,398.904 753.5,390.5 Z"/></g>
<g><path style="opacity:1" fill="#464057" d="M 203.5,460.5 C 201.167,460.5 198.833,460.5 196.5,460.5C 196.5,463.5 196.5,466.5 196.5,469.5C 180.833,469.5 165.167,469.5 149.5,469.5C 149.5,467.5 149.5,465.5 149.5,463.5C 147.721,461.656 145.388,460.99 142.5,461.5C 142.5,447.5 142.5,433.5 142.5,419.5C 162.832,420.771 183.165,420.771 203.5,419.5C 203.5,433.167 203.5,446.833 203.5,460.5 Z"/></g>
<g><path style="opacity:0.994" fill="#5e5c7e" d="M 911.5,457.5 C 940.245,463.582 968.912,469.915 997.5,476.5C 918.335,477.632 839.002,478.299 759.5,478.5C 759.325,476.379 759.659,474.379 760.5,472.5C 762.527,472.662 764.527,472.495 766.5,472C 768.394,470.921 768.727,469.587 767.5,468C 773.26,467.408 775.927,464.242 775.5,458.5C 820.834,458.241 866.167,457.907 911.5,457.5 Z"/></g>
<g><path style="opacity:0.995" fill="#5e5c7d" d="M 203.5,460.5 C 201.708,461.309 199.708,461.809 197.5,462C 256.007,462.761 314.34,462.261 372.5,460.5C 376.095,463.129 380.095,464.963 384.5,466C 465.57,466.83 546.57,466.663 627.5,465.5C 627.5,470.833 627.5,476.167 627.5,481.5C 610.385,480.18 593.052,479.514 575.5,479.5C 416.001,480.678 256.501,481.678 97,482.5C 65.3316,482.5 33.8316,482.167 2.5,481.5C 31.8853,475.99 61.2187,470.156 90.5,464C 105.163,463.5 119.83,463.333 134.5,463.5C 139.5,463.5 144.5,463.5 149.5,463.5C 149.5,465.5 149.5,467.5 149.5,469.5C 165.167,469.5 180.833,469.5 196.5,469.5C 196.5,466.5 196.5,463.5 196.5,460.5C 198.833,460.5 201.167,460.5 203.5,460.5 Z"/></g>
<g><path style="opacity:1" fill="#f5becb" d="M 750.5,469.5 C 753.725,470.807 757.059,471.807 760.5,472.5C 759.659,474.379 759.325,476.379 759.5,478.5C 759.276,482.179 758.942,485.846 758.5,489.5C 754.5,489.833 750.5,490.167 746.5,490.5C 747.835,483.49 749.169,476.49 750.5,469.5 Z"/></g>
<g><path style="opacity:0.998" fill="#403b4f" d="M 803.5,499.5 C 802.641,503.795 802.474,508.128 803,512.5C 799.421,522.228 796.921,532.228 795.5,542.5C 794.834,559.004 791.167,574.838 784.5,590C 791.862,602.152 791.028,613.652 782,624.5C 774.076,633.274 764.909,640.274 754.5,645.5C 754.168,635.478 754.501,625.478 755.5,615.5C 756.382,614.24 757.382,613.074 758.5,612C 748.12,611.571 737.787,612.071 727.5,613.5C 720.256,613.751 713.589,611.918 707.5,608C 692.799,599.963 680.632,589.13 671,575.5C 660.557,551.725 665.39,531.558 685.5,515C 697.737,509.548 709.737,503.548 721.5,497C 729.888,494.497 738.221,492.33 746.5,490.5C 750.5,490.167 754.5,489.833 758.5,489.5C 769.41,488.048 780.41,487.548 791.5,488C 797.35,490.019 801.35,493.852 803.5,499.5 Z"/></g>
<g><path style="opacity:0.098" fill="#1f70fe" d="M 871.5,497.5 C 848.154,515.52 822.821,530.52 795.5,542.5C 796.921,532.228 799.421,522.228 803,512.5C 802.474,508.128 802.641,503.795 803.5,499.5C 825.997,498.517 848.664,497.85 871.5,497.5 Z"/></g>
<g><path style="opacity:0.996" fill="#5e5c7d" d="M 896.5,498.5 C 923.833,498.5 951.167,498.5 978.5,498.5C 978.5,574.833 978.5,651.167 978.5,727.5C 950.95,708.464 923.783,688.798 897,668.5C 896.5,611.834 896.333,555.168 896.5,498.5 Z"/></g>
<g><path style="opacity:0.992" fill="#555372" d="M 997.5,476.5 C 997.833,476.5 998.167,476.5 998.5,476.5C 998.5,560.167 998.5,643.833 998.5,727.5C 991.833,727.5 985.167,727.5 978.5,727.5C 978.5,651.167 978.5,574.833 978.5,498.5C 951.167,498.5 923.833,498.5 896.5,498.5C 888.35,497.507 880.017,497.174 871.5,497.5C 848.664,497.85 825.997,498.517 803.5,499.5C 801.35,493.852 797.35,490.019 791.5,488C 780.41,487.548 769.41,488.048 758.5,489.5C 758.942,485.846 759.276,482.179 759.5,478.5C 839.002,478.299 918.335,477.632 997.5,476.5 Z"/></g>
<g><path style="opacity:0.098" fill="#2070fe" d="M 655.5,397.5 C 663.643,401.545 672.31,404.212 681.5,405.5C 684.979,407.122 688.645,408.289 692.5,409C 694.378,410.543 695.878,412.376 697,414.5C 698.267,425.762 698.934,437.095 699,448.5C 699.833,449.333 700.667,450.167 701.5,451C 710.573,453.951 719.907,455.284 729.5,455C 736.181,460.337 743.181,465.17 750.5,469.5C 749.169,476.49 747.835,483.49 746.5,490.5C 738.221,492.33 729.888,494.497 721.5,497C 709.737,503.548 697.737,509.548 685.5,515C 665.39,531.558 660.557,551.725 671,575.5C 680.632,589.13 692.799,599.963 707.5,608C 713.589,611.918 720.256,613.751 727.5,613.5C 730.962,614.482 734.629,614.815 738.5,614.5C 738.5,617.5 738.5,620.5 738.5,623.5C 732.559,625.424 726.559,627.257 720.5,629C 709.468,629.749 698.468,629.415 687.5,628C 677.468,625.636 670.968,619.47 668,609.5C 663.408,596.208 660.742,582.542 660,568.5C 653.434,550.934 641.267,539.101 623.5,533C 611.181,528.636 598.515,526.136 585.5,525.5C 576.782,527.707 570.616,533.04 567,541.5C 563.498,552.836 559.165,563.836 554,574.5C 551.922,581.345 551.089,588.345 551.5,595.5C 459.212,588.543 369.546,569.376 282.5,538C 259.025,529.232 236.025,519.399 213.5,508.5C 213.5,507.833 213.5,507.167 213.5,506.5C 229.486,505.167 245.819,504.501 262.5,504.5C 386.171,503.303 509.837,501.803 633.5,500C 629.736,494.455 627.736,488.289 627.5,481.5C 627.5,476.167 627.5,470.833 627.5,465.5C 628.446,459.437 629.78,453.437 631.5,447.5C 632.117,447.389 632.617,447.056 633,446.5C 634.569,451.308 636.902,455.641 640,459.5C 645.654,457.846 649.32,454.18 651,448.5C 652.773,431.73 651.94,415.064 648.5,398.5C 648.962,397.12 649.962,396.453 651.5,396.5C 652.849,396.846 654.183,397.179 655.5,397.5 Z"/></g>
<g><path style="opacity:1" fill="#5e5c7d" d="M 213.5,506.5 C 213.5,507.167 213.5,507.833 213.5,508.5C 212.933,562.517 211.766,616.517 210,670.5C 202.391,688.707 194.557,706.707 186.5,724.5C 185.834,718.676 185.5,712.676 185.5,706.5C 187.4,639.828 189.4,573.161 191.5,506.5C 198.833,506.5 206.167,506.5 213.5,506.5 Z"/></g>
<g><path style="opacity:0.998" fill="#555372" d="M 627.5,481.5 C 627.736,488.289 629.736,494.455 633.5,500C 509.837,501.803 386.171,503.303 262.5,504.5C 245.819,504.501 229.486,505.167 213.5,506.5C 206.167,506.5 198.833,506.5 191.5,506.5C 189.4,573.161 187.4,639.828 185.5,706.5C 185.5,712.676 185.834,718.676 186.5,724.5C 186.461,725.583 186.127,726.583 185.5,727.5C 156.154,728.207 126.82,728.874 97.5,729.5C 97.5,655.167 97.5,580.833 97.5,506.5C 64.831,506.646 32.1643,506.98 -0.5,507.5C -0.5,499.167 -0.5,490.833 -0.5,482.5C 0.608953,482.443 1.60895,482.11 2.5,481.5C 33.8316,482.167 65.3316,482.5 97,482.5C 256.501,481.678 416.001,480.678 575.5,479.5C 593.052,479.514 610.385,480.18 627.5,481.5 Z"/></g>
<g><path style="opacity:0.998" fill="#403b4e" d="M 585.5,525.5 C 598.515,526.136 611.181,528.636 623.5,533C 641.267,539.101 653.434,550.934 660,568.5C 660.742,582.542 663.408,596.208 668,609.5C 670.968,619.47 677.468,625.636 687.5,628C 698.468,629.415 709.468,629.749 720.5,629C 726.559,627.257 732.559,625.424 738.5,623.5C 739.492,630.648 739.825,637.981 739.5,645.5C 744.5,645.5 749.5,645.5 754.5,645.5C 734.643,649.008 714.643,649.675 694.5,647.5C 688.815,646.221 683.148,644.555 677.5,642.5C 677.167,642.5 676.833,642.5 676.5,642.5C 674.747,640.777 672.747,639.277 670.5,638C 661.581,635.736 652.581,633.903 643.5,632.5C 638.838,631.501 634.171,630.501 629.5,629.5C 613.679,625.212 597.679,621.545 581.5,618.5C 581.167,618.5 580.833,618.5 580.5,618.5C 570.058,616.699 561.558,611.699 555,603.5C 553.659,600.978 552.826,598.311 552.5,595.5C 553.191,589.62 554.024,583.62 555,577.5C 559.889,566.388 564.222,555.054 568,543.5C 571.379,534.956 577.212,528.956 585.5,525.5 Z"/></g>
<g><path style="opacity:0.255" fill="#5877b5" d="M 585.5,525.5 C 577.212,528.956 571.379,534.956 568,543.5C 564.222,555.054 559.889,566.388 555,577.5C 554.024,583.62 553.191,589.62 552.5,595.5C 552.167,595.5 551.833,595.5 551.5,595.5C 551.089,588.345 551.922,581.345 554,574.5C 559.165,563.836 563.498,552.836 567,541.5C 570.616,533.04 576.782,527.707 585.5,525.5 Z"/></g>
<g><path style="opacity:0.979" fill="#236ffa" d="M 322.5,586.5 C 322.592,588.848 323.592,590.514 325.5,591.5C 327.31,595.31 327.81,599.31 327,603.5C 322.652,605.579 318.152,607.412 313.5,609C 311.004,610.331 309.004,612.164 307.5,614.5C 303.367,615.726 299.367,615.726 295.5,614.5C 301.487,606.538 306.987,598.205 312,589.5C 312.658,587.2 313.158,584.867 313.5,582.5C 312.652,579.49 312.152,576.49 312,573.5C 315.743,577.732 319.243,582.065 322.5,586.5 Z"/></g>
<g><path style="opacity:0.978" fill="#236ffa" d="M 289.5,614.5 C 285.633,615.726 281.633,615.726 277.5,614.5C 275.996,612.164 273.996,610.331 271.5,609C 266.908,607.236 262.408,605.402 258,603.5C 257.242,599.638 257.742,595.972 259.5,592.5C 261.614,591.216 262.614,589.216 262.5,586.5C 265.815,582.571 269.148,578.571 272.5,574.5C 273.002,573.479 273.668,573.312 274.5,574C 271.416,578.578 270.916,583.412 273,588.5C 278.261,597.364 283.761,606.031 289.5,614.5 Z"/></g>
<g><path style="opacity:0.732" fill="#face3c" d="M 262.5,586.5 C 262.614,589.216 261.614,591.216 259.5,592.5C 257.727,591.108 255.727,589.941 253.5,589C 255.711,587.161 257.877,587.328 260,589.5C 260.192,587.423 260.692,585.423 261.5,583.5C 262.386,584.325 262.719,585.325 262.5,586.5 Z"/></g>
<g><path style="opacity:0.705" fill="#fdd038" d="M 325.5,591.5 C 323.592,590.514 322.592,588.848 322.5,586.5C 322.5,585.5 322.5,584.5 322.5,583.5C 323.5,583.5 324.5,583.5 325.5,583.5C 325.338,585.527 325.505,587.527 326,589.5C 327.555,587.485 329.389,587.152 331.5,588.5C 330.061,590.553 328.061,591.553 325.5,591.5 Z"/></g>
<g><path style="opacity:1" fill="#5d5c80" d="M 754.5,645.5 C 749.5,645.5 744.5,645.5 739.5,645.5C 739.825,637.981 739.492,630.648 738.5,623.5C 738.5,620.5 738.5,617.5 738.5,614.5C 734.629,614.815 730.962,614.482 727.5,613.5C 737.787,612.071 748.12,611.571 758.5,612C 757.382,613.074 756.382,614.24 755.5,615.5C 754.501,625.478 754.168,635.478 754.5,645.5 Z"/></g>
<g><path style="opacity:0.931" fill="#64617c" d="M 277.5,614.5 C 281.633,615.726 285.633,615.726 289.5,614.5C 291.5,614.5 293.5,614.5 295.5,614.5C 299.367,615.726 303.367,615.726 307.5,614.5C 314.379,614.222 321.212,614.555 328,615.5C 331.044,616.781 332.21,619.115 331.5,622.5C 305.833,622.5 280.167,622.5 254.5,622.5C 253.058,620.183 253.392,618.016 255.5,616C 262.746,614.609 270.079,614.109 277.5,614.5 Z"/></g>
<g><path style="opacity:0.991" fill="#f9c0ca" d="M 581.5,618.5 C 597.679,621.545 613.679,625.212 629.5,629.5C 629.73,645.68 629.396,661.847 628.5,678C 628.686,691.953 631.186,705.453 636,718.5C 636.499,722.821 636.666,727.154 636.5,731.5C 628.71,735.274 621.71,740.274 615.5,746.5C 615.666,738.493 615.5,730.493 615,722.5C 614.405,717.423 612.905,712.756 610.5,708.5C 602.401,690.549 595.068,672.216 588.5,653.5C 584.249,642.244 581.916,630.578 581.5,618.5 Z"/></g>
<g><path style="opacity:1" fill="#9c9bb4" d="M 254.5,622.5 C 280.167,622.5 305.833,622.5 331.5,622.5C 330.766,623.708 330.433,625.041 330.5,626.5C 305.167,626.5 279.833,626.5 254.5,626.5C 254.5,625.167 254.5,623.833 254.5,622.5 Z"/></g>
<g><path style="opacity:1" fill="#6d6a86" d="M 254.5,626.5 C 279.833,626.5 305.167,626.5 330.5,626.5C 330.795,628.735 330.461,630.735 329.5,632.5C 329.5,631.167 329.5,629.833 329.5,628.5C 304.477,627.843 279.811,628.51 255.5,630.5C 254.566,629.432 254.232,628.099 254.5,626.5 Z"/></g>
<g><path style="opacity:1" fill="#9c9bb4" d="M 329.5,632.5 C 304.833,632.5 280.167,632.5 255.5,632.5C 255.5,631.833 255.5,631.167 255.5,630.5C 279.811,628.51 304.477,627.843 329.5,628.5C 329.5,629.833 329.5,631.167 329.5,632.5 Z"/></g>
<g><path style="opacity:1" fill="#74708b" d="M 255.5,632.5 C 280.167,632.5 304.833,632.5 329.5,632.5C 329.5,633.167 329.5,633.833 329.5,634.5C 304.833,634.5 280.167,634.5 255.5,634.5C 255.5,633.833 255.5,633.167 255.5,632.5 Z"/></g>
<g><path style="opacity:1" fill="#f7bec8" d="M 643.5,632.5 C 652.581,633.903 661.581,635.736 670.5,638C 672.747,639.277 674.747,640.777 676.5,642.5C 676.83,661.341 676.497,680.007 675.5,698.5C 664.356,676.876 653.69,654.876 643.5,632.5 Z"/></g>
<g><path style="opacity:1" fill="#9998b1" d="M 255.5,634.5 C 280.167,634.5 304.833,634.5 329.5,634.5C 329.5,635.833 329.5,637.167 329.5,638.5C 305.167,638.5 280.833,638.5 256.5,638.5C 255.566,637.432 255.232,636.099 255.5,634.5 Z"/></g>
<g><path style="opacity:0.992" fill="#64607d" d="M 256.5,638.5 C 280.833,638.5 305.167,638.5 329.5,638.5C 327.323,652.758 325.656,667.092 324.5,681.5C 324.274,686.086 321.94,689.253 317.5,691C 309.239,692.121 300.906,692.621 292.5,692.5C 284.094,692.621 275.761,692.121 267.5,691C 263.345,689.189 261.345,686.023 261.5,681.5C 259.323,667.242 257.656,652.908 256.5,638.5 Z"/></g>
<g><path style="opacity:0.082" fill="#838181" d="M 580.5,618.5 C 580.833,618.5 581.167,618.5 581.5,618.5C 581.916,630.578 584.249,642.244 588.5,653.5C 582.794,642.654 580.127,630.987 580.5,618.5 Z"/></g>
<g><path style="opacity:0.999" fill="#5e5c7d" d="M 677.5,642.5 C 683.148,644.555 688.815,646.221 694.5,647.5C 694.5,657.5 694.5,667.5 694.5,677.5C 694.5,693.167 694.5,708.833 694.5,724.5C 694.169,732.196 694.503,739.862 695.5,747.5C 697.78,746.298 700.114,745.298 702.5,744.5C 716.435,746.521 730.435,749.021 744.5,752C 753.168,754.172 761.168,757.672 768.5,762.5C 769.79,763.058 770.623,764.058 771,765.5C 772.193,770.152 771.36,774.319 768.5,778C 765.93,780.087 763.263,781.92 760.5,783.5C 715.983,797.648 670.983,799.148 625.5,788C 621.365,786.762 617.365,785.262 613.5,783.5C 608.239,781.555 604.239,778.222 601.5,773.5C 601.032,769.064 602.032,765.064 604.5,761.5C 605.6,763.277 606.434,765.277 607,767.5C 607.804,768.804 608.971,769.471 610.5,769.5C 621.734,768.523 632.068,765.023 641.5,759C 643.749,757.255 645.416,755.088 646.5,752.5C 651.162,755.665 656.329,757.332 662,757.5C 666.851,756.662 671.684,755.662 676.5,754.5C 676.821,748.974 676.488,743.64 675.5,738.5C 675.833,737.833 676.167,737.167 676.5,736.5C 677.082,705.353 677.415,674.02 677.5,642.5 Z"/></g>
<g><path style="opacity:0.989" fill="#f8bfca" d="M 694.5,677.5 C 696.798,683.915 698.632,690.582 700,697.5C 702.88,703.962 706.713,709.629 711.5,714.5C 705.333,717.004 699.666,720.337 694.5,724.5C 694.5,708.833 694.5,693.167 694.5,677.5 Z"/></g>
<g><path style="opacity:0.098" fill="#1f6ffe" d="M 261.5,681.5 C 261.345,686.023 263.345,689.189 267.5,691C 275.761,692.121 284.094,692.621 292.5,692.5C 300.906,692.621 309.239,692.121 317.5,691C 321.94,689.253 324.274,686.086 324.5,681.5C 335.957,682.018 347.291,683.518 358.5,686C 361.698,686.848 364.531,688.348 367,690.5C 367.711,692.367 367.211,693.867 365.5,695C 355.564,698.936 345.23,701.269 334.5,702C 306.833,704 279.167,704 251.5,702C 240.441,701.322 229.774,698.989 219.5,695C 217.789,693.867 217.289,692.367 218,690.5C 223.592,686.888 229.758,684.721 236.5,684C 244.782,682.59 253.115,681.756 261.5,681.5 Z"/></g>
<g><path style="opacity:0.137" fill="#8f848c" d="M 676.5,642.5 C 676.833,642.5 677.167,642.5 677.5,642.5C 677.415,674.02 677.082,705.353 676.5,736.5C 676.666,730.158 676.5,723.825 676,717.5C 672.24,725.366 667.74,732.699 662.5,739.5C 658.158,740.193 653.825,741.026 649.5,742C 647.622,743.543 646.122,745.376 645,747.5C 644.283,746.956 643.783,746.289 643.5,745.5C 644.977,743.193 646.977,741.36 649.5,740C 653.727,739.256 657.894,738.422 662,737.5C 666.25,731.335 670.25,725.002 674,718.5C 675.377,711.924 675.877,705.257 675.5,698.5C 676.497,680.007 676.83,661.341 676.5,642.5 Z"/></g>
<g><path style="opacity:1" fill="#1a4fb1" d="M 711.5,714.5 C 714.43,720.697 717.097,727.031 719.5,733.5C 719.124,735.383 718.124,736.883 716.5,738C 712.566,740.464 708.566,742.631 704.5,744.5C 703.833,744.5 703.167,744.5 702.5,744.5C 700.114,745.298 697.78,746.298 695.5,747.5C 694.503,739.862 694.169,732.196 694.5,724.5C 699.666,720.337 705.333,717.004 711.5,714.5 Z"/></g>
<g><path style="opacity:1" fill="#fac0cb" d="M 676.5,736.5 C 676.167,737.167 675.833,737.833 675.5,738.5C 671.306,741.597 666.639,743.597 661.5,744.5C 661.629,742.784 661.962,741.117 662.5,739.5C 667.74,732.699 672.24,725.366 676,717.5C 676.5,723.825 676.666,730.158 676.5,736.5 Z"/></g>
<g><path style="opacity:1" fill="#1b4fb0" d="M 636.5,731.5 C 639.341,735.849 641.674,740.516 643.5,745.5C 643.783,746.289 644.283,746.956 645,747.5C 646.122,745.376 647.622,743.543 649.5,742C 653.825,741.026 658.158,740.193 662.5,739.5C 661.962,741.117 661.629,742.784 661.5,744.5C 666.639,743.597 671.306,741.597 675.5,738.5C 676.488,743.64 676.821,748.974 676.5,754.5C 671.684,755.662 666.851,756.662 662,757.5C 656.329,757.332 651.162,755.665 646.5,752.5C 645.416,755.088 643.749,757.255 641.5,759C 632.068,765.023 621.734,768.523 610.5,769.5C 608.971,769.471 607.804,768.804 607,767.5C 606.434,765.277 605.6,763.277 604.5,761.5C 606.19,755.13 609.857,750.13 615.5,746.5C 621.71,740.274 628.71,735.274 636.5,731.5 Z"/></g>
<g><path style="opacity:0.167" fill="#818082" d="M 610.5,708.5 C 612.905,712.756 614.405,717.423 615,722.5C 615.5,730.493 615.666,738.493 615.5,746.5C 609.857,750.13 606.19,755.13 604.5,761.5C 602.032,765.064 601.032,769.064 601.5,773.5C 600.191,772.376 599.525,770.876 599.5,769C 601.546,764.644 603.046,760.144 604,755.5C 606.667,751.5 610,748.167 614,745.5C 615.066,732.932 613.9,720.599 610.5,708.5 Z"/></g>
<g><path style="opacity:0.147" fill="#7e7e7f" d="M 702.5,744.5 C 703.167,744.5 703.833,744.5 704.5,744.5C 725.914,744.948 746.248,749.782 765.5,759C 766.71,760.039 767.71,761.206 768.5,762.5C 761.168,757.672 753.168,754.172 744.5,752C 730.435,749.021 716.435,746.521 702.5,744.5 Z"/></g>
<g><path style="opacity:0.098" fill="#206ffe" d="M 613.5,783.5 C 617.365,785.262 621.365,786.762 625.5,788C 670.983,799.148 715.983,797.648 760.5,783.5C 764.622,783.697 768.622,784.53 772.5,786C 774.013,788.454 773.346,790.121 770.5,791C 756.139,793.765 741.806,795.599 727.5,796.5C 701.833,796.5 676.167,796.5 650.5,796.5C 636.531,795.532 622.531,793.699 608.5,791C 607.5,790.5 606.5,790 605.5,789.5C 604.479,788.998 604.312,788.332 605,787.5C 607.682,785.671 610.516,784.337 613.5,783.5 Z"/></g>
</svg>
